<svg width="132" height="134" viewBox="0 0 132 134" fill="none" xmlns="http://www.w3.org/2000/svg">
<g clip-path="url(#clip0_8_721)">
<path d="M65.5014 14.3509C84.048 8.96304 107.139 16.5493 124.75 32.5784C142.27 48.5824 154.401 73.0544 147.597 87.613C140.794 102.172 115.146 106.842 89.6031 113.573C64.0599 120.304 38.6861 129.212 26.8527 120.016C15.1096 110.846 16.907 83.5715 24.8394 60.811C32.8621 38.0756 46.9548 19.7388 65.5014 14.3509Z" fill="#545871"/>
<g clip-path="url(#clip1_8_721)">
<path d="M8.11287 84.3309C8.11287 84.3309 5.5531 74.5043 7.26744 69.6952C8.98177 64.8862 14.3492 61.3282 14.1328 58.307C13.9173 55.2864 10.4717 47.1213 13.2808 41.0428C13.2808 41.0428 14.3484 46.465 15.4014 47.6713C16.4543 48.8776 23.6819 53.7417 22.4002 60.1652C21.1192 66.5888 14.0933 68.0902 12.3628 69.9816C10.6323 71.8729 8.29618 71.8699 8.28152 73.1276C8.26685 74.3846 7.81077 78.9572 8.58655 83.4682L8.11213 84.3301L8.11287 84.3309Z" fill="#3C8F7C"/>
<path d="M15.4014 47.6713C16.4543 48.8776 23.6819 53.7417 22.4002 60.1652C21.1192 66.5888 14.0933 68.0902 12.3628 69.9816C10.6323 71.8729 8.29618 71.8699 8.28152 73.1276C8.26685 74.3853 7.81078 78.9572 8.58655 83.4682L8.37904 83.8448C7.99995 82.0842 7.47421 79.4029 7.3019 77.3669C7.02253 74.0601 7.5578 72.6915 8.61881 70.0131C9.68056 67.3347 16.2754 61.8789 17.9281 59.0103C19.5809 56.1418 14.7414 51.3474 13.6672 49.0325C12.593 46.7175 13.2801 41.0428 13.2801 41.0428C13.2801 41.0428 14.3477 46.465 15.4006 47.6713H15.4014Z" fill="#327F6B"/>
<path d="M107.553 93.6369C104.195 95.2066 105.101 99.1053 105.101 99.1053C105.101 99.1053 95.9964 92.0114 92.5927 96.1516C89.1889 100.292 90.9773 108.409 94.9699 109.728C98.9624 111.048 133.685 110.124 133.685 110.124C133.685 110.124 110.573 92.225 107.553 93.6377V93.6369Z" fill="#96D9C9"/>
<path d="M133.685 110.088C133.685 110.088 118.511 106.97 115.201 103.933C111.891 100.897 113.356 99.7124 113.356 99.7124C113.356 99.7124 107.525 95.1126 107.615 92.109C107.706 89.1053 111.505 90.6295 111.505 90.6295C111.505 90.6295 105.067 82.3558 106.594 80.7824C109.439 77.8514 116.884 86.4512 116.884 86.4512C116.884 86.4512 114.674 82.3602 117.005 81.7104C120.521 80.731 123.106 90.8204 123.106 90.8204C123.106 90.8204 122.451 86.8359 124.873 87.3645C129.219 88.3146 133.685 110.088 133.685 110.088Z" fill="#50BFA5"/>
<path d="M124.034 34.3542L133.226 110.28L131.914 111.701L124.042 80.2149L124.034 34.3542Z" fill="#B75742"/>
<path d="M122.917 26.7258L131.914 111.701H112.054L116.987 24.9755L122.917 26.7258Z" fill="#355389"/>
<path d="M125.769 110.742H14.894C12.9978 110.742 11.3561 109.115 11.227 107.109L6.17565 28.7654C6.0664 27.0694 7.27699 25.6942 8.87988 25.6942H120.285C121.887 25.6942 123.275 27.0694 123.385 28.7654L128.473 107.67C128.582 109.367 127.371 110.742 125.769 110.742V110.742Z" fill="#EDD7BE"/>
<path d="M116.971 25.2508L116.987 24.9755L123.43 25.5496L131.914 111.701H130.967L121.97 26.7258L116.971 25.2508Z" fill="#184655"/>
<path d="M122.933 35.8271L127.736 108.48C127.59 110.255 126.033 110.742 125.132 110.742H110.736L119.327 29.2765L122.933 35.8271Z" fill="#FEF8F8"/>
<path d="M111.445 53.967H118.927C120.001 53.967 120.79 53.0603 120.69 51.9413L119.996 44.1426C119.896 43.0237 118.945 42.1169 117.872 42.1169H110.39C109.317 42.1169 108.528 43.0237 108.627 44.1426L109.322 51.9413C109.422 53.0603 110.373 53.967 111.445 53.967Z" fill="#9BC1F9"/>
<path d="M95.3175 53.967H102.8C103.873 53.967 104.662 53.0603 104.562 51.9413L103.868 44.1426C103.768 43.0237 102.817 42.1169 101.744 42.1169H94.2624C93.1889 42.1169 92.3999 43.0237 92.4996 44.1426L93.194 51.9413C93.2937 53.0603 94.2448 53.967 95.3175 53.967Z" fill="#9BC1F9"/>
<path d="M79.1897 53.967H86.6718C87.7452 53.967 88.5342 53.0603 88.4345 51.9413L87.7401 44.1426C87.6404 43.0237 86.6894 42.1169 85.6166 42.1169H78.1345C77.0611 42.1169 76.2721 43.0237 76.3718 44.1426L77.0662 51.9413C77.1659 53.0603 78.1169 53.967 79.1897 53.967Z" fill="#9BC1F9"/>
<path d="M63.0618 53.967H70.5438C71.6173 53.967 72.4063 53.0603 72.3066 51.9413L71.6122 44.1426C71.5125 43.0237 70.5614 42.1169 69.4887 42.1169H62.0066C60.9331 42.1169 60.1442 43.0237 60.2439 44.1426L60.9383 51.9413C61.038 53.0603 61.989 53.967 63.0618 53.967Z" fill="#9BC1F9"/>
<path d="M46.9341 53.967H54.4161C55.4896 53.967 56.2786 53.0603 56.1789 51.9413L55.4845 44.1426C55.3848 43.0237 54.4337 42.1169 53.361 42.1169H45.8789C44.8055 42.1169 44.0165 43.0237 44.1162 44.1426L44.8106 51.9413C44.9103 53.0603 45.8613 53.967 46.9341 53.967Z" fill="#9BC1F9"/>
<path d="M30.8069 53.967H38.2889C39.3624 53.967 40.1514 53.0603 40.0517 51.9413L39.3573 44.1426C39.2576 43.0237 38.3065 42.1169 37.2338 42.1169H29.7517C28.6782 42.1169 27.8893 43.0237 27.989 44.1426L28.6834 51.9413C28.7831 53.0603 29.7341 53.967 30.8069 53.967Z" fill="#FFAC9A"/>
<path d="M14.6791 53.967H22.1611C23.2346 53.967 24.0236 53.0603 23.9239 51.9413L23.2295 44.1426C23.1298 43.0237 22.1787 42.1169 21.106 42.1169H13.6239C12.5504 42.1169 11.7615 43.0237 11.8612 44.1426L12.5556 51.9413C12.6553 53.0603 13.6063 53.967 14.6791 53.967Z" fill="#FFAC9A"/>
<path d="M113.034 71.8082H120.516C121.59 71.8082 122.379 70.9015 122.279 69.7825L121.585 61.9838C121.485 60.8649 120.534 59.9581 119.461 59.9581H111.979C110.906 59.9581 110.117 60.8649 110.216 61.9838L110.911 69.7825C111.01 70.9015 111.961 71.8082 113.034 71.8082Z" fill="#9BC1F9"/>
<path d="M96.9064 71.8082H104.388C105.462 71.8082 106.251 70.9015 106.151 69.7825L105.457 61.9838C105.357 60.8649 104.406 59.9581 103.333 59.9581H95.8512C94.7777 59.9581 93.9888 60.8649 94.0885 61.9838L94.7829 69.7825C94.8826 70.9015 95.8336 71.8082 96.9064 71.8082Z" fill="#9BC1F9"/>
<path d="M80.7786 71.8082H88.2606C89.3341 71.8082 90.1231 70.9015 90.0234 69.7825L89.329 61.9838C89.2293 60.8649 88.2782 59.9581 87.2055 59.9581H79.7234C78.6499 59.9581 77.861 60.8649 77.9607 61.9838L78.6551 69.7825C78.7548 70.9015 79.7058 71.8082 80.7786 71.8082Z" fill="#9BC1F9"/>
<path d="M64.6508 71.8082H72.1328C73.2063 71.8082 73.9953 70.9015 73.8956 69.7825L73.2012 61.9838C73.1014 60.8649 72.1504 59.9581 71.0777 59.9581H63.5956C62.5221 59.9581 61.7332 60.8649 61.8329 61.9838L62.5273 69.7825C62.627 70.9015 63.578 71.8082 64.6508 71.8082Z" fill="#9BC1F9"/>
<path d="M48.5229 71.8082H56.005C57.0785 71.8082 57.8675 70.9015 57.7677 69.7825L57.0734 61.9838C56.9736 60.8649 56.0226 59.9581 54.9499 59.9581H47.4678C46.3943 59.9581 45.6053 60.8649 45.7051 61.9838L46.3994 69.7825C46.4992 70.9015 47.4502 71.8082 48.5229 71.8082Z" fill="#9BC1F9"/>
<path d="M32.3951 71.8082H39.8772C40.9507 71.8082 41.7397 70.9015 41.6399 69.7825L40.9456 61.9838C40.8458 60.8649 39.8948 59.9581 38.8221 59.9581H31.34C30.2665 59.9581 29.4775 60.8649 29.5773 61.9838L30.2716 69.7825C30.3714 70.9015 31.3224 71.8082 32.3951 71.8082Z" fill="#FFAC9A"/>
<path d="M16.2673 71.8082H23.7494C24.8229 71.8082 25.6118 70.9015 25.5121 69.7825L24.8177 61.9838C24.718 60.8649 23.767 59.9581 22.6942 59.9581H15.2122C14.1387 59.9581 13.3497 60.8649 13.4494 61.9838L14.1438 69.7825C14.2436 70.9015 15.1946 71.8082 16.2673 71.8082Z" fill="#FFAC9A"/>
<path d="M114.622 89.6494H122.105C123.178 89.6494 123.967 88.7427 123.867 87.6237L123.173 79.825C123.073 78.7061 122.122 77.7993 121.049 77.7993H113.567C112.494 77.7993 111.705 78.7061 111.805 79.825L112.499 87.6237C112.599 88.7427 113.55 89.6494 114.622 89.6494Z" fill="#9BC1F9"/>
<path d="M98.4946 89.6494H105.977C107.05 89.6494 107.839 88.7427 107.739 87.6237L107.045 79.825C106.945 78.7061 105.994 77.7993 104.922 77.7993H97.4395C96.366 77.7993 95.577 78.7061 95.6767 79.825L96.3711 87.6237C96.4709 88.7427 97.4219 89.6494 98.4946 89.6494Z" fill="#9BC1F9"/>
<path d="M82.3668 89.6494H89.8489C90.9224 89.6494 91.7113 88.7427 91.6116 87.6237L90.9172 79.825C90.8175 78.7061 89.8665 77.7993 88.7937 77.7993H81.3117C80.2382 77.7993 79.4492 78.7061 79.5489 79.825L80.2433 87.6237C80.343 88.7427 81.2941 89.6494 82.3668 89.6494Z" fill="#9BC1F9"/>
<path d="M66.239 89.6494H73.7211C74.7946 89.6494 75.5835 88.7427 75.4838 87.6237L74.7894 79.825C74.6897 78.7061 73.7387 77.7993 72.6659 77.7993H65.1839C64.1104 77.7993 63.3214 78.7061 63.4211 79.825L64.1155 87.6237C64.2152 88.7427 65.1663 89.6494 66.239 89.6494Z" fill="#9BC1F9"/>
<path d="M50.1112 89.6494H57.5933C58.6667 89.6494 59.4557 88.7427 59.356 87.6237L58.6616 79.825C58.5619 78.7061 57.6109 77.7993 56.5381 77.7993H49.056C47.9826 77.7993 47.1936 78.7061 47.2933 79.825L47.9877 87.6237C48.0874 88.7427 49.0385 89.6494 50.1112 89.6494Z" fill="#9BC1F9"/>
<path d="M33.9834 89.6494H41.4655C42.5389 89.6494 43.3279 88.7427 43.2282 87.6237L42.5338 79.825C42.4341 78.7061 41.4831 77.7993 40.4103 77.7993H32.9282C31.8548 77.7993 31.0658 78.7061 31.1655 79.825L31.8599 87.6237C31.9596 88.7427 32.9106 89.6494 33.9834 89.6494Z" fill="#FFAC9A"/>
<path d="M17.8556 89.6494H25.3377C26.4111 89.6494 27.2001 88.7427 27.1004 87.6237L26.406 79.825C26.3063 78.7061 25.3552 77.7993 24.2825 77.7993H16.8004C15.727 77.7993 14.938 78.7061 15.0377 79.825L15.7321 87.6237C15.8318 88.7427 16.7828 89.6494 17.8556 89.6494Z" fill="#FFAC9A"/>
<path d="M116.211 107.491H123.693C124.766 107.491 125.555 106.584 125.455 105.465L124.761 97.6662C124.661 96.5472 123.71 95.6405 122.638 95.6405H115.156C114.082 95.6405 113.293 96.5472 113.393 97.6662L114.087 105.465C114.187 106.584 115.138 107.491 116.211 107.491Z" fill="#9BC1F9"/>
<path d="M100.083 107.491H107.565C108.638 107.491 109.427 106.584 109.328 105.465L108.633 97.6662C108.534 96.5472 107.583 95.6405 106.51 95.6405H99.0277C97.9543 95.6405 97.1653 96.5472 97.265 97.6662L97.9594 105.465C98.0591 106.584 99.0101 107.491 100.083 107.491Z" fill="#9BC1F9"/>
<path d="M83.9551 107.491H91.4371C92.5106 107.491 93.2996 106.584 93.1999 105.465L92.5055 97.6662C92.4058 96.5472 91.4547 95.6405 90.382 95.6405H82.8999C81.8264 95.6405 81.0375 96.5472 81.1372 97.6662L81.8316 105.465C81.9313 106.584 82.8823 107.491 83.9551 107.491Z" fill="#9BC1F9"/>
<path d="M67.8273 107.491H75.3093C76.3828 107.491 77.1718 106.584 77.0721 105.465L76.3777 97.6662C76.278 96.5472 75.3269 95.6405 74.2542 95.6405H66.7721C65.6986 95.6405 64.9097 96.5472 65.0094 97.6662L65.7038 105.465C65.8035 106.584 66.7545 107.491 67.8273 107.491Z" fill="#9BC1F9"/>
<path d="M51.6993 107.491H59.1814C60.2549 107.491 61.0439 106.584 60.9441 105.465L60.2497 97.6662C60.15 96.5472 59.199 95.6405 58.1263 95.6405H50.6442C49.5707 95.6405 48.7817 96.5472 48.8815 97.6662L49.5758 105.465C49.6756 106.584 50.6266 107.491 51.6993 107.491Z" fill="#9BC1F9"/>
<path d="M6.93744 113.146H117.813C119.709 113.146 121.282 111.579 121.326 109.648L123.056 34.2397C123.094 32.6069 121.825 31.2831 120.222 31.2831H8.81676C7.21387 31.2831 5.8845 32.6069 5.8471 34.2397L4.10416 110.19C4.06677 111.822 5.33528 113.146 6.93816 113.146L6.93744 113.146Z" fill="#E0C8A9"/>
<path d="M6.14337 113.198H117.018C118.914 113.198 120.487 111.632 120.531 109.701L122.261 34.2926C122.299 32.6597 121.03 31.3359 119.427 31.3359H8.02196C6.41908 31.3359 5.0897 32.6597 5.0523 34.2926L3.30936 110.242C3.27197 111.875 4.5405 113.199 6.14337 113.199V113.198Z" fill="#FEF8F8"/>
<path d="M13.5491 19.916H117.042C120.841 19.916 123.71 22.9644 123.451 26.725L122.756 36.8138H5.5054L6.20126 26.725C6.46082 22.9644 9.75018 19.916 13.5491 19.916Z" fill="#B75742"/>
<path d="M13.0146 19.916H116.508C120.307 19.916 123.176 22.9644 122.917 26.725L122.221 36.8138H4.97086L5.66671 26.725C5.92628 22.9644 9.21564 19.916 13.0146 19.916Z" fill="#0E7490"/>
<path d="M107.805 55.3767H115.287C116.36 55.3767 117.26 54.4795 117.296 53.3724L117.55 45.6559C117.587 44.5487 116.746 43.6515 115.673 43.6515H108.191C107.118 43.6515 106.218 44.5487 106.182 45.6559L105.928 53.3724C105.891 54.4795 106.732 55.3767 107.805 55.3767Z" fill="#FFAC9A"/>
<path d="M91.6768 55.3767H99.1589C100.232 55.3767 101.132 54.4795 101.168 53.3724L101.422 45.6559C101.459 44.5487 100.618 43.6515 99.5453 43.6515H92.0632C90.9898 43.6515 90.0901 44.5487 90.0541 45.6559L89.7997 53.3724C89.763 54.4795 90.6041 55.3767 91.6768 55.3767Z" fill="#9BC1F9"/>
<path d="M75.549 55.3767H83.0311C84.1046 55.3767 85.0043 54.4795 85.0402 53.3724L85.2946 45.6559C85.3313 44.5487 84.4902 43.6515 83.4175 43.6515H75.9354C74.862 43.6515 73.9623 44.5487 73.9263 45.6559L73.6719 53.3724C73.6352 54.4795 74.4763 55.3767 75.549 55.3767Z" fill="#9BC1F9"/>
<path d="M59.4212 55.3767H66.9033C67.9768 55.3767 68.8764 54.4795 68.9124 53.3724L69.1668 45.6559C69.2035 44.5487 68.3624 43.6515 67.2897 43.6515H59.8076C58.7341 43.6515 57.8344 44.5487 57.7985 45.6559L57.5448 53.3724C57.5082 54.4795 58.3492 55.3767 59.4219 55.3767H59.4212Z" fill="#9BC1F9"/>
<path d="M43.2934 55.3767H50.7755C51.8489 55.3767 52.7486 54.4795 52.7846 53.3724L53.039 45.6559C53.0757 44.5487 52.2346 43.6515 51.1619 43.6515H43.6798C42.6063 43.6515 41.7066 44.5487 41.6707 45.6559L41.417 53.3724C41.3803 54.4795 42.2214 55.3767 43.2941 55.3767H43.2934Z" fill="#9BC1F9"/>
<path d="M27.1656 55.3767H34.6477C35.7211 55.3767 36.6208 54.4795 36.6568 53.3724L36.9105 45.6559C36.9471 44.5487 36.1061 43.6515 35.0334 43.6515H27.5513C26.4778 43.6515 25.5781 44.5487 25.5422 45.6559L25.2877 53.3724C25.2511 54.4795 26.0921 55.3767 27.1649 55.3767H27.1656Z" fill="#9BC1F9"/>
<path d="M11.0378 55.3767H18.5199C19.5933 55.3767 20.493 54.4795 20.529 53.3724L20.7827 45.6559C20.8193 44.5487 19.9783 43.6515 18.9055 43.6515H11.4235C10.35 43.6515 9.45029 44.5487 9.41436 45.6559L9.15993 53.3724C9.12327 54.4795 9.9643 55.3767 11.037 55.3767H11.0378Z" fill="#FFAC9A"/>
<path d="M107.223 73.0307H114.705C115.779 73.0307 116.678 72.1335 116.714 71.0263L116.969 63.3098C117.005 62.2026 116.164 61.3054 115.092 61.3054H107.61C106.536 61.3054 105.636 62.2026 105.601 63.3098L105.346 71.0263C105.309 72.1335 106.15 73.0307 107.223 73.0307Z" fill="#FFAC9A"/>
<path d="M91.0954 73.0307H98.5775C99.6509 73.0307 100.551 72.1335 100.587 71.0263L100.841 63.3098C100.878 62.2026 100.037 61.3054 98.9639 61.3054H91.4818C90.4083 61.3054 89.5086 62.2026 89.4727 63.3098L89.2183 71.0263C89.1816 72.1335 90.0227 73.0307 91.0954 73.0307Z" fill="#9BC1F9"/>
<path d="M74.9676 73.0307H82.4497C83.5231 73.0307 84.4228 72.1335 84.4588 71.0263L84.7132 63.3098C84.7499 62.2026 83.9088 61.3054 82.8361 61.3054H75.354C74.2805 61.3054 73.3808 62.2026 73.3449 63.3098L73.0905 71.0263C73.0538 72.1335 73.8948 73.0307 74.9676 73.0307Z" fill="#9BC1F9"/>
<path d="M58.8398 73.0307H66.3219C67.3953 73.0307 68.295 72.1335 68.331 71.0263L68.5854 63.3098C68.6221 62.2026 67.781 61.3054 66.7083 61.3054H59.2262C58.1527 61.3054 57.253 62.2026 57.2171 63.3098L56.9627 71.0263C56.926 72.1335 57.767 73.0307 58.8398 73.0307Z" fill="#9BC1F9"/>
<path d="M42.712 73.0307H50.194C51.2675 73.0307 52.1672 72.1335 52.2032 71.0263L52.4569 63.3098C52.4935 62.2026 51.6525 61.3054 50.5797 61.3054H43.0977C42.0242 61.3054 41.1245 62.2026 41.0886 63.3098L40.8341 71.0263C40.7975 72.1335 41.6385 73.0307 42.7112 73.0307H42.712Z" fill="#9BC1F9"/>
<path d="M26.5842 73.0307H34.0662C35.1397 73.0307 36.0394 72.1335 36.0753 71.0263L36.3298 63.3098C36.3664 62.2026 35.5254 61.3054 34.4527 61.3054H26.9706C25.8971 61.3054 24.9974 62.2026 24.9615 63.3098L24.707 71.0263C24.6704 72.1335 25.5114 73.0307 26.5842 73.0307Z" fill="#9BC1F9"/>
<path d="M10.4564 73.0307H17.9384C19.0119 73.0307 19.9116 72.1335 19.9475 71.0263L20.202 63.3098C20.2386 62.2026 19.3976 61.3054 18.3249 61.3054H10.8428C9.7693 61.3054 8.86961 62.2026 8.83369 63.3098L8.57998 71.0263C8.54331 72.1335 9.38436 73.0307 10.4571 73.0307H10.4564Z" fill="#FFAC9A"/>
<path d="M106.642 90.6839H114.124C115.197 90.6839 116.097 89.7867 116.133 88.6795L116.387 80.963C116.424 79.8558 115.583 78.9586 114.51 78.9586H107.028C105.955 78.9586 105.055 79.8558 105.019 80.963L104.765 88.6795C104.728 89.7867 105.569 90.6839 106.642 90.6839Z" fill="#FFAC9A"/>
<path d="M90.514 90.6839H97.996C99.0695 90.6839 99.9692 89.7867 100.005 88.6795L100.26 80.963C100.296 79.8558 99.4552 78.9586 98.3825 78.9586H90.9004C89.8269 78.9586 88.9272 79.8558 88.8913 80.963L88.6369 88.6795C88.6002 89.7867 89.4412 90.6839 90.514 90.6839Z" fill="#9BC1F9"/>
<path d="M74.3862 90.6839H81.8682C82.9417 90.6839 83.8414 89.7867 83.8773 88.6795L84.1318 80.963C84.1684 79.8558 83.3274 78.9586 82.2547 78.9586H74.7726C73.6991 78.9586 72.7994 79.8558 72.7635 80.963L72.509 88.6795C72.4724 89.7867 73.3134 90.6839 74.3862 90.6839Z" fill="#9BC1F9"/>
<path d="M58.2584 90.6839H65.7404C66.8139 90.6839 67.7136 89.7867 67.7495 88.6795L68.0032 80.963C68.0399 79.8558 67.1989 78.9586 66.1261 78.9586H58.644C57.5706 78.9586 56.6709 79.8558 56.6349 80.963L56.3805 88.6795C56.3438 89.7867 57.1849 90.6839 58.2576 90.6839H58.2584Z" fill="#9BC1F9"/>
<path d="M42.1304 90.6839H49.6125C50.686 90.6839 51.5857 89.7867 51.6216 88.6795L51.876 80.963C51.9127 79.8558 51.0717 78.9586 49.9989 78.9586H42.5169C41.4434 78.9586 40.5437 79.8558 40.5077 80.963L40.2533 88.6795C40.2166 89.7867 41.0577 90.6839 42.1304 90.6839Z" fill="#9BC1F9"/>
<path d="M26.0026 90.6839H33.4847C34.5582 90.6839 35.4579 89.7867 35.4938 88.6795L35.7482 80.963C35.7849 79.8558 34.9439 78.9586 33.8711 78.9586H26.389C25.3156 78.9586 24.4159 79.8558 24.38 80.963L24.1262 88.6795C24.0896 89.7867 24.9306 90.6839 26.0034 90.6839H26.0026Z" fill="#9BC1F9"/>
<path d="M9.87481 90.6839H17.3569C18.4304 90.6839 19.3301 89.7867 19.366 88.6795L19.6204 80.963C19.6571 79.8558 18.8161 78.9586 17.7433 78.9586H10.2612C9.18776 78.9586 8.28806 79.8558 8.25213 80.963L7.99843 88.6795C7.96177 89.7867 8.8028 90.6839 9.87555 90.6839H9.87481Z" fill="#FFAC9A"/>
<path d="M106.06 108.337H113.542C114.616 108.337 115.515 107.44 115.551 106.333L115.806 98.6163C115.843 97.5091 115.001 96.6119 113.929 96.6119H106.447C105.373 96.6119 104.473 97.5091 104.438 98.6163L104.183 106.333C104.146 107.44 104.987 108.337 106.06 108.337Z" fill="#FFAC9A"/>
<path d="M89.9324 108.337H97.4145C98.488 108.337 99.3877 107.44 99.4236 106.333L99.678 98.6163C99.7147 97.5091 98.8737 96.6119 97.8009 96.6119H90.3189C89.2454 96.6119 88.3457 97.5091 88.3098 98.6163L88.0553 106.333C88.0187 107.44 88.8597 108.337 89.9324 108.337Z" fill="#9BC1F9"/>
<path d="M73.8046 108.337H81.2867C82.3602 108.337 83.2599 107.44 83.2958 106.333L83.5502 98.6163C83.5869 97.5091 82.7459 96.6119 81.6731 96.6119H74.191C73.1176 96.6119 72.2179 97.5091 72.1819 98.6163L71.9275 106.333C71.8908 107.44 72.7319 108.337 73.8046 108.337Z" fill="#9BC1F9"/>
<path d="M57.6768 108.337H65.1589C66.2324 108.337 67.1321 107.44 67.168 106.333L67.4224 98.6163C67.4591 97.5091 66.6181 96.6119 65.5453 96.6119H58.0632C56.9898 96.6119 56.0901 97.5091 56.0541 98.6163L55.8004 106.333C55.7638 107.44 56.6048 108.337 57.6776 108.337H57.6768Z" fill="#9BC1F9"/>
<path d="M41.5497 108.337H49.0318C50.1053 108.337 51.005 107.44 51.0409 106.333L51.2954 98.6163C51.332 97.5091 50.491 96.6119 49.4182 96.6119H41.9362C40.8627 96.6119 39.963 97.5091 39.9271 98.6163L39.6734 106.333C39.6367 107.44 40.4777 108.337 41.5505 108.337H41.5497Z" fill="#9BC1F9"/>
<path d="M13.5942 31.8953C13.7562 31.99 13.9887 32.0686 14.227 32.0686C14.5811 32.0686 14.7754 31.8836 14.7571 31.6156C14.7403 31.3674 14.587 31.225 14.2152 31.0877C13.7665 30.9342 13.4805 30.7096 13.4549 30.3351C13.4263 29.921 13.7518 29.6134 14.2732 29.6134C14.5481 29.6134 14.7513 29.6765 14.8752 29.7434L14.7989 30.0231C14.708 29.9761 14.5232 29.8968 14.2805 29.8968C13.9139 29.8968 13.79 30.1134 13.8024 30.2947C13.8193 30.5429 13.9909 30.6655 14.3714 30.8072C14.837 30.9805 15.0834 31.1971 15.1098 31.5877C15.1384 31.9974 14.8561 32.3527 14.2226 32.3527C13.9637 32.3527 13.6756 32.2778 13.526 32.1831L13.5935 31.8953H13.5942Z" fill="white"/>
<path d="M17.1988 31.7933C17.2128 31.9901 17.2282 32.1641 17.2509 32.3138H16.94L16.8989 32.0025H16.8909C16.8102 32.156 16.6203 32.3572 16.2779 32.3572C15.975 32.3572 15.6011 32.192 15.5549 31.5216L15.4779 30.4064H15.8284L15.901 31.4629C15.9259 31.8256 16.0542 32.0701 16.3732 32.0701C16.6086 32.0701 16.7604 31.9086 16.8132 31.7544C16.8293 31.703 16.8373 31.6398 16.8329 31.5767L16.7523 30.4056H17.1028L17.1981 31.7933H17.1988Z" fill="white"/>
<path d="M17.7201 30.9218C17.707 30.725 17.6916 30.5627 17.6688 30.4056H17.9797L18.0215 30.7213H18.0296C18.1124 30.54 18.3236 30.3623 18.6418 30.3623C18.9087 30.3623 19.3333 30.5202 19.3788 31.1743L19.4572 32.3138H19.1067L19.0312 31.214C19.0099 30.9064 18.8765 30.6501 18.5465 30.6501C18.3155 30.6501 18.1476 30.8116 18.1014 31.0047C18.0882 31.0481 18.0846 31.1075 18.089 31.1663L18.1682 32.3131H17.8177L17.7216 30.9218H17.7201Z" fill="white"/>
<path d="M32.1476 30.9218C32.141 30.8998 32.1285 30.8396 32.1095 30.7412C32.0933 30.659 32.0794 30.5915 32.0684 30.5371C32.0611 30.601 32.0493 30.6656 32.0325 30.7295C32.0156 30.7934 31.9929 30.8594 31.965 30.9255L31.3242 32.427L30.4736 30.8947C30.4384 30.8315 30.4069 30.7706 30.3805 30.7119C30.3541 30.6531 30.3299 30.5944 30.3093 30.5364C30.3123 30.5951 30.3115 30.6575 30.3071 30.7221C30.3035 30.7868 30.2954 30.8543 30.2829 30.9255L30.0732 32.3132H29.6472L30.1172 29.3763L31.08 31.1546C31.0947 31.1825 31.1181 31.2295 31.1489 31.2948C31.1797 31.3602 31.2178 31.4409 31.2618 31.5371C31.2831 31.4563 31.319 31.3536 31.3689 31.2295C31.3821 31.1964 31.3923 31.1707 31.3982 31.1524L32.0963 29.3756L32.9872 32.3124H32.5575L32.1469 30.9211L32.1476 30.9218Z" fill="white"/>
<path d="M33.1235 31.4028C33.1147 31.2691 33.1309 31.1436 33.1741 31.0247C33.2174 30.9057 33.2834 30.8007 33.3728 30.7082C33.4616 30.6172 33.5649 30.5474 33.6852 30.4982C33.8047 30.4498 33.9323 30.4248 34.0672 30.4248C34.2021 30.4248 34.3378 30.449 34.4639 30.4982C34.59 30.5467 34.7044 30.6186 34.8085 30.7141C34.9119 30.8081 34.9933 30.9138 35.052 31.032C35.1106 31.1502 35.1444 31.2735 35.1532 31.4035C35.1627 31.5379 35.1466 31.6649 35.1048 31.7823C35.063 31.9006 34.997 32.0048 34.9075 32.0959C34.8129 32.192 34.7059 32.2647 34.5864 32.3146C34.4668 32.3638 34.3385 32.3888 34.2029 32.3888C34.0672 32.3888 33.9396 32.3638 33.8128 32.3146C33.6859 32.2655 33.5715 32.1935 33.4696 32.1003C33.3655 32.0055 33.2848 31.8991 33.2262 31.7809C33.1675 31.6627 33.1338 31.5371 33.1243 31.4035L33.1235 31.4028ZM34.7081 31.4064C34.6964 31.2368 34.6311 31.0937 34.513 30.9762C34.395 30.8587 34.2557 30.8 34.0966 30.8C33.9374 30.8 33.8077 30.8587 33.705 30.9762C33.6023 31.0937 33.5569 31.2368 33.5686 31.4064C33.5803 31.576 33.6456 31.7192 33.7644 31.8367C33.8832 31.9542 34.0218 32.0129 34.1801 32.0129C34.3385 32.0129 34.4683 31.9542 34.5717 31.8367C34.6744 31.7192 34.7198 31.576 34.7081 31.4064Z" fill="white"/>
<path d="M35.6635 32.3132L35.5374 30.4887H35.934L35.9546 30.7868C36.0301 30.6612 36.1232 30.5694 36.2332 30.5114C36.3432 30.4534 36.4796 30.4248 36.6431 30.4248C36.7802 30.4248 36.899 30.4461 36.9987 30.4894C37.0984 30.5327 37.1784 30.5959 37.2385 30.681C37.2744 30.731 37.3016 30.7897 37.3206 30.8565C37.3397 30.9233 37.3543 31.0401 37.3661 31.2067L37.4423 32.3132H37.0163L36.9518 31.3756C36.9349 31.1355 36.8946 30.9762 36.8301 30.8976C36.7655 30.8191 36.6585 30.7794 36.5082 30.7794C36.4099 30.7794 36.3234 30.7978 36.2486 30.833C36.1738 30.869 36.1166 30.9197 36.077 30.985C36.0492 31.0283 36.0308 31.0849 36.0235 31.1531C36.0162 31.2222 36.0176 31.3308 36.0279 31.4813L36.0851 32.3124H35.6635V32.3132Z" fill="white"/>
<path d="M46.9013 29.8844L47.0685 32.3131H46.6058L46.4386 29.8844H45.6826L45.6555 29.4952H47.6272L47.6544 29.8844H46.902H46.9013Z" fill="white"/>
<path d="M48.0224 30.4886L48.0936 31.5165C48.106 31.6935 48.1515 31.8205 48.2307 31.8976C48.3099 31.9747 48.4323 32.0129 48.5981 32.0129C48.7638 32.0129 48.8811 31.9747 48.95 31.8976C49.0189 31.8205 49.0468 31.6935 49.0343 31.5165L48.9632 30.4886H49.3848L49.4472 31.391C49.4714 31.7397 49.4178 31.993 49.2873 32.1509C49.1568 32.3087 48.9368 32.3873 48.6266 32.3873C48.3165 32.3873 48.0782 32.3087 47.9264 32.1524C47.7746 31.996 47.6866 31.7419 47.6617 31.3903L47.5994 30.4879H48.021L48.0224 30.4886Z" fill="white"/>
<path d="M51.7972 31.463H50.3233C50.3453 31.6333 50.4062 31.7669 50.5044 31.8624C50.6027 31.9578 50.7288 32.0055 50.8821 32.0055C51.0184 32.0055 51.1299 31.9776 51.2164 31.9211C51.303 31.8646 51.3763 31.7735 51.4349 31.648L51.8045 31.844C51.7136 32.0276 51.5948 32.1641 51.4481 32.2537C51.3015 32.3433 51.1248 32.3888 50.9187 32.3888C50.6232 32.3888 50.382 32.3 50.1943 32.1216C50.0073 31.9431 49.9032 31.7053 49.8826 31.4072C49.8629 31.1208 49.9369 30.8859 50.1056 30.7016C50.2735 30.5173 50.4993 30.4255 50.7838 30.4255C51.0683 30.4255 51.3176 30.51 51.4951 30.6774C51.6725 30.8455 51.7715 31.0812 51.7928 31.3837L51.7979 31.463H51.7972ZM51.3403 31.1818C51.3147 31.0511 51.2568 30.9512 51.168 30.8822C51.0793 30.8139 50.9613 30.7794 50.8146 30.7794C50.676 30.7794 50.5668 30.8132 50.4868 30.8793C50.4069 30.9461 50.3549 31.0467 50.3307 31.1818H51.3396H51.3403Z" fill="white"/>
<path d="M61.8441 29.4961H62.3009L62.9374 30.9183C62.9792 31.0123 63.0137 31.0938 63.043 31.165C63.0716 31.2355 63.0972 31.3015 63.12 31.3632C63.1552 31.2142 63.1926 31.0688 63.2314 30.9264C63.2366 30.9087 63.2402 30.8963 63.2424 30.8896L63.7102 29.3845L64.4186 30.9183C64.4523 30.9924 64.4845 31.0673 64.5146 31.1415C64.5454 31.2156 64.574 31.2913 64.6011 31.3669C64.6099 31.3089 64.6231 31.2457 64.6407 31.1767C64.6583 31.1077 64.6811 31.0255 64.7097 30.93L65.1452 29.4961H65.6064L64.706 32.4234L63.9456 30.8162C63.9119 30.7443 63.8818 30.6753 63.854 30.6092C63.8261 30.5431 63.8012 30.4807 63.7784 30.4212C63.7616 30.4968 63.7447 30.5681 63.7271 30.6341C63.7095 30.7002 63.6912 30.7634 63.6721 30.8236L63.1449 32.4227L61.8449 29.4954L61.8441 29.4961Z" fill="white"/>
<path d="M67.5789 31.463H66.1051C66.1271 31.6333 66.1879 31.7669 66.2862 31.8624C66.3844 31.9578 66.5106 32.0055 66.6638 32.0055C66.8002 32.0055 66.9116 31.9776 66.9982 31.9211C67.0847 31.8646 67.158 31.7735 67.2167 31.648L67.5862 31.844C67.4953 32.0276 67.3765 32.1641 67.2299 32.2537C67.0832 32.3433 66.9065 32.3888 66.7005 32.3888C66.405 32.3888 66.1637 32.3 65.976 32.1216C65.789 31.9431 65.6849 31.7053 65.6644 31.4072C65.6446 31.1208 65.7186 30.8859 65.8873 30.7016C66.0552 30.5173 66.2818 30.4255 66.5655 30.4255C66.8493 30.4255 67.0994 30.51 67.2768 30.6774C67.4542 30.8455 67.5532 31.0812 67.5745 31.3837L67.5796 31.463H67.5789ZM67.1221 31.1818C67.0964 31.0511 67.0392 30.9512 66.9498 30.8822C66.861 30.8139 66.743 30.7794 66.5963 30.7794C66.4578 30.7794 66.3485 30.8132 66.2686 30.8793C66.1887 30.9461 66.1366 31.0467 66.1124 31.1818H67.1214H67.1221Z" fill="white"/>
<path d="M69.1832 29.3301H69.6049L69.8102 32.3132H69.3886L69.3724 32.0767C69.3042 32.1817 69.2221 32.2603 69.1253 32.3117C69.0285 32.3631 68.9149 32.3888 68.7858 32.3888C68.5255 32.3888 68.3144 32.3007 68.1523 32.1245C67.9903 31.9483 67.8986 31.7067 67.8781 31.3998C67.8583 31.1083 67.9184 30.8734 68.0584 30.6942C68.1992 30.5151 68.3928 30.4255 68.6384 30.4255C68.7888 30.4255 68.92 30.4563 69.0307 30.5188C69.1422 30.5812 69.2258 30.6707 69.2837 30.7875L69.1832 29.3308V29.3301ZM69.3372 31.3954C69.324 31.2067 69.2698 31.0599 69.1737 30.9549C69.0777 30.8499 68.9501 30.797 68.7902 30.797C68.6304 30.797 68.5094 30.8514 68.4251 30.96C68.3415 31.0687 68.3056 31.2192 68.3188 31.4116C68.3319 31.6054 68.3862 31.7552 68.4815 31.8602C68.5769 31.9651 68.7052 32.018 68.8658 32.018C69.0263 32.018 69.1385 31.9615 69.225 31.8477C69.3116 31.7339 69.349 31.5834 69.3358 31.3961L69.3372 31.3954Z" fill="white"/>
<path d="M79.3557 29.8844L79.5228 32.3131H79.0602L78.893 29.8844H78.137L78.1099 29.4952H80.0816L80.1087 29.8844H79.3564H79.3557Z" fill="white"/>
<path d="M80.5948 32.3132L80.3888 29.3301H80.7855L80.8859 30.7867C80.9615 30.6612 81.0546 30.5694 81.1646 30.5114C81.2746 30.4534 81.4109 30.4248 81.5745 30.4248C81.7116 30.4248 81.8304 30.4461 81.9301 30.4894C82.0298 30.5327 82.1097 30.5958 82.1699 30.681C82.2058 30.7309 82.2329 30.7897 82.252 30.8565C82.271 30.9233 82.2857 31.04 82.2974 31.2067L82.3737 32.3132H81.9477L81.8832 31.3756C81.8663 31.1355 81.826 30.9762 81.7614 30.8976C81.6969 30.819 81.5899 30.7794 81.4395 30.7794C81.3413 30.7794 81.2548 30.7978 81.18 30.833C81.1052 30.869 81.048 30.9196 81.0084 30.985C80.9805 31.0283 80.9622 31.0848 80.9549 31.1531C80.9475 31.2221 80.9483 31.3308 80.9593 31.4813L81.0165 32.3124H80.5948V32.3132Z" fill="white"/>
<path d="M83.2176 30.4886L83.2888 31.5165C83.3012 31.6935 83.3467 31.8205 83.4259 31.8976C83.5051 31.9747 83.6275 32.0129 83.7932 32.0129C83.959 32.0129 84.0763 31.9747 84.1452 31.8976C84.2141 31.8205 84.242 31.6935 84.2295 31.5165L84.1584 30.4886H84.58L84.6423 31.391C84.6665 31.7397 84.613 31.993 84.4825 32.1509C84.352 32.3087 84.132 32.3873 83.8226 32.3873C83.5131 32.3873 83.2741 32.3087 83.1223 32.1524C82.9705 31.996 82.8818 31.7419 82.8576 31.3903L82.7953 30.4879H83.2169L83.2176 30.4886Z" fill="white"/>
<path d="M94.8308 32.3132L94.6365 29.4954H96.2247L96.2518 29.8845H95.1263L95.1747 30.5871H96.3002L96.3281 30.9895H95.2025L95.2942 32.314H94.8315L94.8308 32.3132Z" fill="white"/>
<path d="M97.1317 30.7794C97.1684 30.659 97.2227 30.5694 97.293 30.5122C97.3634 30.4542 97.4536 30.4255 97.5643 30.4255C97.6237 30.4255 97.6831 30.4329 97.7418 30.4468C97.8005 30.4608 97.8584 30.4813 97.9163 30.5085L97.7894 30.8624C97.7513 30.8367 97.711 30.8176 97.6677 30.8059C97.6245 30.7934 97.5775 30.7875 97.5255 30.7875C97.3854 30.7875 97.2886 30.8433 97.2358 30.9542C97.1823 31.065 97.1647 31.2515 97.1831 31.5129L97.2381 32.3139H96.8164L96.6903 30.4857H97.1119L97.1325 30.7802L97.1317 30.7794Z" fill="white"/>
<path d="M98.0644 29.6994C98.0593 29.6289 98.0821 29.5679 98.1305 29.5165C98.1797 29.4651 98.2406 29.4395 98.3133 29.4395C98.3859 29.4395 98.4527 29.4644 98.5063 29.5136C98.5599 29.5628 98.5893 29.6252 98.5944 29.6994C98.5995 29.7735 98.579 29.8367 98.5313 29.8873C98.4843 29.938 98.4234 29.9637 98.35 29.9637C98.2766 29.9637 98.2127 29.938 98.1569 29.8858C98.1011 29.8337 98.0703 29.772 98.0652 29.7001L98.0644 29.6994ZM98.3015 32.3131L98.1753 30.4886H98.5973L98.7236 32.3131H98.3015Z" fill="white"/>
<path d="M110.856 31.7493L111.214 31.5797C111.257 31.7052 111.328 31.8014 111.427 31.8675C111.524 31.9336 111.646 31.9666 111.791 31.9666C111.928 31.9666 112.035 31.9284 112.111 31.8528C112.186 31.7772 112.22 31.6759 112.211 31.5488C112.199 31.3836 112.051 31.2361 111.765 31.1061C111.724 31.087 111.693 31.0731 111.672 31.0635C111.348 30.9123 111.13 30.775 111.017 30.6524C110.904 30.5298 110.841 30.38 110.829 30.203C110.813 29.9732 110.879 29.7875 111.027 29.6451C111.174 29.5026 111.376 29.4314 111.631 29.4314C111.841 29.4314 112.02 29.4718 112.166 29.5518C112.313 29.6318 112.419 29.7471 112.484 29.8976L112.135 30.0826C112.072 29.9938 112.004 29.9292 111.934 29.8881C111.864 29.847 111.784 29.8264 111.696 29.8264C111.571 29.8264 111.474 29.8587 111.406 29.9226C111.337 29.9865 111.306 30.0724 111.314 30.1803C111.325 30.3499 111.497 30.5077 111.828 30.6538C111.854 30.6656 111.874 30.6744 111.888 30.681C112.179 30.8095 112.38 30.9351 112.493 31.0569C112.607 31.1795 112.67 31.3323 112.683 31.5158C112.701 31.7823 112.631 31.9945 112.471 32.1516C112.312 32.3087 112.089 32.3873 111.8 32.3873C111.557 32.3873 111.355 32.3322 111.193 32.2221C111.03 32.112 110.918 31.9541 110.856 31.7485V31.7493Z" fill="white"/>
<path d="M114.942 32.3132H114.521L114.505 32.0768C114.436 32.1818 114.354 32.2603 114.258 32.3117C114.161 32.3631 114.047 32.3888 113.918 32.3888C113.658 32.3888 113.447 32.3007 113.285 32.1245C113.122 31.9483 113.031 31.7067 113.01 31.3998C112.99 31.1083 113.051 30.8734 113.191 30.6943C113.331 30.5151 113.525 30.4255 113.771 30.4255C113.921 30.4255 114.051 30.4564 114.163 30.5188C114.274 30.5812 114.359 30.6708 114.416 30.7875L114.395 30.4894H114.817L114.943 32.3139L114.942 32.3132ZM114.469 31.3954C114.456 31.2067 114.401 31.0599 114.305 30.9549C114.209 30.8499 114.082 30.797 113.922 30.797C113.762 30.797 113.64 30.8514 113.557 30.96C113.473 31.0687 113.437 31.2192 113.45 31.4116C113.463 31.6054 113.518 31.7552 113.613 31.8602C113.708 31.9652 113.837 32.018 113.997 32.018C114.149 32.018 114.269 31.9608 114.356 31.847C114.443 31.7324 114.48 31.5826 114.467 31.3969L114.469 31.3954Z" fill="white"/>
<path d="M115.625 32.3131L115.525 30.8543H115.202L115.177 30.4886H115.5L115.452 29.7977H115.874L115.921 30.4886H116.244L116.269 30.8543H115.946L116.047 32.3131H115.625Z" fill="white"/>
<path d="M56.093 51.8664C56.3731 53.2306 57.0045 54.6799 58.3441 55.6468C60.0423 56.8737 62.5662 56.8898 64.4821 55.6865L64.5041 55.6733C65.2916 55.2048 67.759 53.4053 66.4509 49.8936L65.7375 50.1601C66.8095 53.0367 64.9602 54.5147 64.1155 55.0169C64.0986 55.0272 64.0854 55.0345 64.0774 55.0396C62.4173 56.0822 60.2432 56.0778 58.7899 55.0279C56.5711 53.4251 56.5806 50.1961 56.6877 48.8819C56.7332 48.3275 56.816 47.6895 57.0917 47.1587C57.6805 46.0229 59.1162 44.9473 60.582 44.5427C62.0433 44.1396 63.3661 43.9906 64.5137 44.1007C65.821 44.2263 67.0639 44.9619 67.6813 45.9759C67.7304 46.0566 67.7803 46.1374 67.8294 46.2182C68.5165 47.3364 69.1104 48.3026 68.9308 50.0221L69.6882 50.1014C69.895 48.1242 69.1749 46.9516 68.4783 45.8188C68.4299 45.7395 68.3808 45.6602 68.3317 45.5794C67.594 44.368 66.1239 43.4891 64.587 43.3416C63.3471 43.2226 61.9319 43.379 60.3803 43.807C58.9813 44.1932 57.2134 45.2703 56.4164 46.8063C56.0784 47.4575 55.9808 48.1895 55.9295 48.8195C55.8745 49.4993 55.8452 50.6491 56.0945 51.8657L56.093 51.8664Z" fill="#FFAC9A"/>
<path d="M19.7334 25.9857C18.7023 25.9857 17.8665 24.9867 17.8665 23.7544C17.8665 22.5222 18.7023 21.5232 19.7334 21.5232C20.7644 21.5232 21.6002 22.5222 21.6002 23.7544C21.6002 24.9867 20.7644 25.9857 19.7334 25.9857Z" fill="#B75742"/>
<path d="M19.7334 21.5232C19.9248 21.5232 20.1095 21.5577 20.2833 21.6216C19.5207 21.902 18.9657 22.7508 18.9657 23.7544C18.9657 24.7581 19.52 25.6068 20.2833 25.8873C20.1095 25.9512 19.9248 25.9857 19.7334 25.9857C18.7024 25.9857 17.8665 24.9864 17.8665 23.7544C17.8665 22.5224 18.7024 21.5232 19.7334 21.5232Z" fill="#A54737"/>
<path d="M27.6393 6.68274C33.0741 6.68274 37.4956 11.5314 37.4956 17.4917C37.4956 18.325 37.4076 19.1363 37.2434 19.9161H35.7307C35.9176 19.1422 36.0196 18.3302 36.0196 17.4917C36.0196 12.3464 32.2602 8.1607 27.6385 8.1607C23.0169 8.1607 19.2575 12.3464 19.2575 17.4917C19.2575 20.1187 20.2379 22.4961 21.8121 24.1928C22.093 24.4953 22.0629 24.9703 21.7513 25.2405C21.7476 25.2435 21.7439 25.2471 21.7403 25.2501C21.4441 25.5048 20.9982 25.4821 20.7321 25.1957C18.9121 23.2332 17.7822 20.5042 17.7822 17.491C17.7822 11.5307 22.2037 6.68201 27.6385 6.68201L27.6393 6.68274Z" fill="#184655"/>
<path d="M21.601 23.8205C21.601 23.8205 21.5108 25.1002 20.6103 25.725C19.7099 26.3499 21.8598 26.678 21.9691 26.5686C22.0783 26.4593 23.0741 25.8146 23.099 25.17C23.1232 24.5254 22.9164 24.0026 22.8805 23.9174C22.8438 23.8323 22.5645 23.3337 22.4919 23.3337C22.4193 23.3337 21.601 23.8205 21.601 23.8205Z" fill="#FFAC9A"/>
<path d="M45.0598 25.9857C44.0287 25.9857 43.1929 24.9867 43.1929 23.7544C43.1929 22.5222 44.0287 21.5232 45.0598 21.5232C46.0908 21.5232 46.9266 22.5222 46.9266 23.7544C46.9266 24.9867 46.0908 25.9857 45.0598 25.9857Z" fill="#B75742"/>
<path d="M45.0598 21.5232C45.2512 21.5232 45.436 21.5577 45.6097 21.6216C44.8472 21.902 44.2921 22.7508 44.2921 23.7544C44.2921 24.7581 44.8464 25.6068 45.6097 25.8873C45.436 25.9512 45.2512 25.9857 45.0598 25.9857C44.0289 25.9857 43.193 24.9864 43.193 23.7544C43.193 22.5224 44.0289 21.5232 45.0598 21.5232Z" fill="#A54737"/>
<path d="M52.965 6.68274C58.3998 6.68274 62.8213 11.5314 62.8213 17.4917C62.8213 18.325 62.7333 19.1363 62.5691 19.9161H61.0564C61.2441 19.1422 61.3453 18.3302 61.3453 17.4917C61.3453 12.3464 57.5859 8.1607 52.9642 8.1607C48.3426 8.1607 44.5832 12.3464 44.5832 17.4917C44.5832 20.1187 45.5635 22.4961 47.1378 24.1928C47.4187 24.4953 47.3886 24.9703 47.077 25.2405C47.0733 25.2435 47.0696 25.2471 47.066 25.2501C46.7697 25.5048 46.3239 25.4821 46.0577 25.1957C44.2378 23.2332 43.1079 20.5042 43.1079 17.491C43.1079 11.5307 47.5294 6.68201 52.9642 6.68201L52.965 6.68274Z" fill="#184655"/>
<path d="M46.9266 23.8205C46.9266 23.8205 46.8365 25.1002 45.936 25.725C45.0356 26.3499 47.1855 26.678 47.2947 26.5686C47.404 26.4593 48.3997 25.8146 48.4247 25.17C48.4489 24.5254 48.2421 24.0026 48.2062 23.9174C48.1695 23.8323 47.8901 23.3337 47.8175 23.3337C47.7449 23.3337 46.9266 23.8205 46.9266 23.8205Z" fill="#FFAC9A"/>
<path d="M68.5186 23.7544C68.5186 24.9864 69.3545 25.9857 70.3855 25.9857C71.4164 25.9857 72.2523 24.9864 72.2523 23.7544C72.2523 22.5224 71.4164 21.5232 70.3855 21.5232C69.3545 21.5232 68.5186 22.5224 68.5186 23.7544Z" fill="#B75742"/>
<path d="M70.3855 21.5232C70.5769 21.5232 70.7616 21.5577 70.9354 21.6216C70.1728 21.902 69.6178 22.7508 69.6178 23.7544C69.6178 24.7581 70.1721 25.6068 70.9354 25.8873C70.7616 25.9512 70.5769 25.9857 70.3855 25.9857C69.3545 25.9857 68.5186 24.9864 68.5186 23.7544C68.5186 22.5224 69.3545 21.5232 70.3855 21.5232Z" fill="#A54737"/>
<path d="M78.2906 6.68274C83.7255 6.68274 88.147 11.5314 88.147 17.4917C88.147 18.325 88.059 19.1363 87.8947 19.9161H86.382C86.5698 19.1422 86.6709 18.3302 86.6709 17.4917C86.6709 12.3464 82.9116 8.16069 78.2899 8.16069C73.6682 8.16069 69.9089 12.3464 69.9089 17.4917C69.9089 20.1187 70.8892 22.4961 72.4635 24.1928C72.7443 24.4953 72.7143 24.9703 72.4026 25.2405C72.399 25.2435 72.3953 25.2471 72.3917 25.2501C72.0954 25.5048 71.6496 25.4821 71.3834 25.1957C69.5635 23.2332 68.4336 20.5042 68.4336 17.491C68.4343 11.5314 72.8558 6.68274 78.2906 6.68274Z" fill="#184655"/>
<path d="M72.2523 23.8205C72.2523 23.8205 72.1621 25.1002 71.2617 25.725C70.3613 26.3499 72.5112 26.678 72.6204 26.5686C72.7297 26.4593 73.7254 25.8146 73.7503 25.17C73.7745 24.5254 73.5685 24.0026 73.5318 23.9174C73.4952 23.8323 73.2158 23.3337 73.1432 23.3337C73.0706 23.3337 72.2523 23.8205 72.2523 23.8205Z" fill="#FFAC9A"/>
<path d="M95.7112 25.9857C94.6801 25.9857 93.8443 24.9867 93.8443 23.7544C93.8443 22.5222 94.6801 21.5232 95.7112 21.5232C96.7422 21.5232 97.578 22.5222 97.578 23.7544C97.578 24.9867 96.7422 25.9857 95.7112 25.9857Z" fill="#B75742"/>
<path d="M95.7112 21.5232C95.9025 21.5232 96.0873 21.5577 96.2611 21.6216C95.4985 21.902 94.9435 22.7508 94.9435 23.7544C94.9435 24.7581 95.4978 25.6068 96.2611 25.8873C96.0873 25.9512 95.9025 25.9857 95.7112 25.9857C94.6802 25.9857 93.8443 24.9864 93.8443 23.7544C93.8443 22.5224 94.6802 21.5232 95.7112 21.5232Z" fill="#A54737"/>
<path d="M103.617 6.68274C109.052 6.68274 113.473 11.5314 113.473 17.4917C113.473 18.325 113.385 19.1363 113.221 19.9161H111.708C111.896 19.1422 111.997 18.3302 111.997 17.4917C111.997 12.3464 108.238 8.16069 103.616 8.16069C98.9947 8.16069 95.2353 12.3464 95.2353 17.4917C95.2353 20.1187 96.2156 22.4961 97.7899 24.1928C98.0708 24.4953 98.0407 24.9703 97.7291 25.2405C97.7254 25.2435 97.7217 25.2471 97.7181 25.2501C97.4218 25.5048 96.976 25.4821 96.7099 25.1957C94.8899 23.2332 93.76 20.5042 93.76 17.491C93.76 11.5314 98.1822 6.68274 103.617 6.68274Z" fill="#184655"/>
<path d="M97.578 23.8205C97.578 23.8205 97.4878 25.1002 96.5874 25.725C95.687 26.3499 97.8368 26.678 97.9461 26.5686C98.0554 26.4593 99.0511 25.8146 99.076 25.17C99.1002 24.5254 98.8942 24.0026 98.8575 23.9174C98.8209 23.8323 98.5415 23.3337 98.4689 23.3337C98.3963 23.3337 97.578 23.8205 97.578 23.8205Z" fill="#FFAC9A"/>
<path d="M3.41858 110.242L3.53664 105.095L9.15333 106.193C9.15333 106.193 25.8787 108.139 25.9513 108.139C26.0239 108.139 42.0997 112.858 42.0997 112.858L44.108 113.198H6.25259C4.64971 113.198 3.38119 111.874 3.41858 110.242Z" fill="#F7CC7F"/>
<path d="M44.108 113.198C44.108 113.198 30.7519 110.278 20.2034 91.9636C20.2034 91.9636 15.0296 106.084 3.53663 105.095C3.53663 105.095 18.9393 112.27 44.108 113.198Z" fill="#FAE0B2"/>
<path d="M93.9529 41.4936C94.3019 41.4671 94.6495 41.4253 94.9926 41.3555C95.3805 41.277 95.8777 41.1955 96.1717 41.2241C96.7906 41.2836 97.7988 41.6044 98.2094 42.3592C98.7205 43.2997 100.13 42.9928 98.8679 46.9216C97.4395 51.3679 95.0469 50.2336 95.0051 50.141C94.9633 50.0493 93.4909 46.6807 93.4909 46.6807C93.4909 46.6807 92.3053 48.1543 92.3207 48.0934C92.3353 48.0346 89.7594 41.8122 93.9529 41.4936Z" fill="#0E2E35"/>
<path d="M92.9798 57.7481C92.5025 57.3598 88.812 58.9809 88.859 59.5455C88.9059 60.1101 86.2838 65.5821 86.2838 65.5821L81.7531 61.9647L81.7509 61.9662C81.7105 61.8355 81.2816 60.428 81.2603 60.1769C81.2383 59.9126 80.4728 59.4508 80.1172 59.5191C79.7616 59.5873 80.4215 60.0337 80.4647 60.116C80.5828 60.3392 80.1267 60.4229 80.1267 60.4229C80.1267 60.4229 78.8179 59.7033 78.79 59.2804C78.7621 58.8575 78.4923 57.9706 78.2093 58.1564C78.0633 58.2518 78.0648 58.881 78.1103 59.1799C78.026 58.8406 77.9072 58.4581 77.7913 58.4207C77.5794 58.3517 77.4745 58.6211 77.5127 58.7533C77.5508 58.8854 77.8932 60.3245 77.9974 60.4867C78.0985 60.6453 80.2132 62.3501 80.5175 62.7209C80.5175 62.7209 86.3784 69.4294 86.7956 69.6048C87.1615 69.759 88.4674 67.447 89.7007 65.9125C90.9341 64.378 94.472 58.9647 92.9806 57.7503L92.9798 57.7481Z" fill="#F7A491"/>
<path d="M104.805 107.076C104.805 107.076 105.61 107.863 105.628 108.151C105.647 108.44 105.7 111.534 105.371 111.822C105.043 112.111 104.077 112.316 104.387 112.641C104.622 112.886 106.427 112.834 107.624 112.768C107.973 112.749 108.411 109.959 108.549 109.549C108.75 108.953 109.238 107.612 109.056 107.196C108.967 106.994 108.541 106.578 107.941 106.19C107.31 105.782 106.706 104.874 106.706 104.874L104.805 107.077V107.076Z" fill="#F48C7F"/>
<path d="M96.4628 108.908C96.4628 108.908 97.1835 110.946 97.1843 110.952C97.2378 111.275 97.449 112.073 97.449 112.366C97.449 113.469 92.4812 111.43 93.5943 110.941C93.6947 110.897 94.0115 110.543 94.0445 110.168C94.0958 109.59 93.6258 108.864 93.6258 108.864L96.4628 108.908V108.908Z" fill="#F7A491"/>
<path d="M88.6692 70.947C88.6692 70.947 88.307 74.6019 88.307 74.6562C88.307 80.568 87.1367 92.1156 87.3589 93.2272C87.9015 95.9379 93.7455 109.767 93.7455 109.767L96.9043 109.389L92.7886 92.8315L94.3035 86.1671L96.4467 72.9933L88.6692 70.947Z" fill="black"/>
<path d="M99.2697 74.1797L99.8688 77.6437L101.49 91.899L107.665 105.831C107.665 105.831 106.797 107.858 105.516 108.143L95.687 93.8388L89.582 75.535L89.7961 71.4683L99.269 74.1789L99.2697 74.1797Z" fill="#232323"/>
<path d="M87.4094 62.2452L91.7891 62.6931C91.7891 62.6931 91.99 59.0977 91.99 57.3826C91.99 55.3018 91.8133 52.622 91.5618 52.68C90.8571 52.8423 89.909 53.2314 89.3444 54.0082C87.3903 56.6968 87.4094 62.2452 87.4094 62.2452Z" fill="#7AC3FC"/>
<path d="M89.5607 57.0162C89.469 57.6505 87.7855 74.8963 87.7855 74.8963C95.7603 78.7531 100.161 75.5835 100.161 75.5835C100.161 75.5835 99.8995 63.4728 100.213 61.8245C100.419 60.7342 100.677 53.4869 99.9713 53.2842C99.0658 53.0236 98.0275 52.7475 96.8954 52.6293C95.9289 52.5287 92.1754 52.4707 91.5045 52.6968C91.5045 52.6968 89.9471 54.3481 89.5614 57.0162H89.5607Z" fill="#7AC3FC"/>
<path d="M107.902 106.171C107.902 106.171 106.046 111.403 105.32 111.656C105.127 111.723 104.201 111.893 104.026 112.303C103.973 112.427 104.026 112.839 104.026 112.839H107.895C107.895 112.839 108.384 110.534 108.577 109.521C108.577 109.521 109.602 107.046 109.487 106.82C109.374 106.596 107.901 106.171 107.901 106.171H107.902Z" fill="#232323"/>
<path d="M97.7313 112.73L97.1623 110.93C97.1623 110.93 95.9679 111.436 95.3703 111.353C94.7727 111.268 93.6068 110.93 93.6068 110.93C91.2223 111.716 89.2689 112.098 89.6245 112.73H97.7321H97.7313Z" fill="#232323"/>
<path d="M86.7949 69.6027C86.7765 69.5954 86.712 69.544 86.6746 69.5132C86.8161 67.8237 86.7905 66.1865 86.261 65.6329C86.2735 65.6064 86.3894 65.3598 86.5104 65.1042C87.1241 65.5793 87.4159 66.8421 87.3015 68.892C87.2935 69.033 87.2531 69.1409 87.2209 69.3164C87.0434 69.5124 86.8814 69.6387 86.7949 69.602V69.6027Z" fill="#F7A491"/>
<path d="M93.6779 50.8569L93.4425 52.605C93.4425 52.605 92.9153 55.1234 93.5935 55.6094C94.2718 56.0947 96.4774 52.5338 96.4774 52.5338L96.2442 48.1044L93.6771 50.8576L93.6779 50.8569Z" fill="#F7A491"/>
<path d="M96.3198 49.539C95.7596 51.05 94.4251 51.9788 93.4785 52.3385L93.6779 50.8562L96.245 48.1029L96.3206 49.5383L96.3198 49.539Z" fill="#FFAC9A"/>
<path d="M75.1472 57.0499L67.9181 46.0471L80.3327 50.4002L81.9862 55.1909L75.1472 57.0499Z" fill="#F2E9DA"/>
<path d="M81.9862 55.1909L80.2264 55.6696L67.9181 46.0471L80.3327 50.4002L81.9862 55.1909Z" fill="#E0D5C3"/>
<path d="M80.3327 50.4002L77.1189 49.2732L78.8706 52.2754L118.307 83.1068L118.576 80.2992L80.3327 50.4002Z" fill="#E8BA70"/>
<path d="M78.8707 52.2754L75.1978 51.7379L76.6093 55.1755L116.046 86.007L118.307 83.1068L78.8707 52.2754Z" fill="#F7CC7F"/>
<path d="M76.6093 55.1755L73.276 54.2019L75.1472 57.0499L113.391 86.9497L116.046 86.007L76.6093 55.1755Z" fill="#FAE0B2"/>
<path d="M115.405 80.8384L118.309 83.1088L116.048 86.0087L113.144 83.7383L115.405 80.8384Z" fill="#50BFA5"/>
<path d="M113.141 83.7368L116.046 86.007L113.391 86.9497L111.679 85.6112L113.141 83.7368Z" fill="#96D9C9"/>
<path d="M116.865 78.9615L118.576 80.2993L118.307 83.1069L115.403 80.8367L116.865 78.9615Z" fill="#3C8F7C"/>
<path d="M113.139 83.7387L111.677 85.6138L108.255 82.9381L109.717 81.063L113.139 83.7387Z" fill="#FEF8F8"/>
<path d="M116.863 78.9634L115.401 80.8385L111.978 78.1628L113.44 76.2878L116.863 78.9634Z" fill="#EDDFCA"/>
<path d="M115.401 80.838L113.14 83.7379L109.718 81.0622L111.979 78.1623L115.401 80.838Z" fill="#F2E9DA"/>
<path d="M70.3716 49.7813C70.3466 49.7438 67.9181 46.0471 67.9181 46.0471L72.1313 47.5243L70.6341 48.1697L70.3716 49.7806V49.7813Z" fill="#E86752"/>
<path d="M70.6341 48.1697L67.9181 46.0471L72.1313 47.5243L70.6341 48.1697Z" fill="#D85648"/>
<path d="M108.059 75.0791C108.064 75.0424 108.065 75.005 108.061 74.9683C107.944 73.7737 106.953 63.7452 106.787 63.3186C106.637 62.9339 102.195 56.5728 102.195 56.5728L100.012 59.5507L104.284 65.2562C104.38 65.6189 105.92 72.389 105.92 72.389C105.92 72.389 106.236 73.6232 106.378 74.3625C106.313 74.5402 106.25 74.7091 106.194 74.8471C106.052 75.1423 105.885 75.3838 105.733 75.5879C105.543 75.8442 105.227 76.4044 105.188 76.5542C105.142 76.7282 105.061 77.0901 105.015 77.3089C104.968 77.5277 104.905 77.7817 104.894 77.9007C104.888 77.9726 104.814 78.1165 104.757 78.2186C104.671 78.3698 104.817 78.549 104.982 78.4939C105.137 78.4425 105.257 78.2414 105.332 78.1158C105.543 77.7619 105.654 77.1158 105.707 77.1503C105.759 77.1841 105.943 78.2803 105.972 78.4044C106.002 78.5284 106.222 79.8008 106.347 80.0336C106.472 80.2663 106.637 80.2274 106.681 80.0813C106.718 79.9557 106.543 78.1753 106.543 78.1753C106.543 78.1753 106.521 77.9484 106.62 78.0189C106.72 78.0894 106.882 79.7061 106.951 79.9425C107.02 80.1789 107.178 80.3045 107.311 80.1143C107.474 79.883 107.194 78.1687 107.194 78.1687C107.194 78.1687 107.162 77.9528 107.255 77.9734C107.346 77.9932 107.461 79.3713 107.533 79.4902C107.605 79.6092 107.786 79.6518 107.871 79.4535C107.973 79.2193 107.71 77.6914 107.71 77.6914C107.71 77.6914 107.723 77.5696 107.78 77.6099C107.838 77.6503 108.019 78.8177 108.138 78.9256C108.238 79.0167 108.321 78.9286 108.321 78.9286C108.539 78.7795 108.205 77.6694 108.208 77.1173C108.211 76.5652 107.956 75.9448 108.032 75.2876C108.036 75.2465 108.05 75.1452 108.058 75.0813L108.059 75.0791Z" fill="#F8A492"/>
<path d="M105.664 60.6014L101.87 63.152C101.87 63.152 99.7316 59.9655 98.5833 58.8312C97.1454 57.4105 99.1069 53.0574 100.034 53.3033C102.106 53.854 105.664 60.6014 105.664 60.6014Z" fill="#7AC3FC"/>
<path d="M95.6863 43.2249C94.4134 42.6742 92.9528 43.4378 92.6507 44.7719C92.5194 45.3519 92.3845 46.0839 92.3082 46.8893C92.1249 48.8261 92.9843 50.7909 93.8642 50.8584C94.7441 50.926 97.2709 49.8555 97.5686 47.1081C97.7526 45.4121 97.0223 43.8027 95.6863 43.2249Z" fill="#F7A491"/>
<path d="M96.9042 47.2762C96.8719 47.7043 97.1285 48.0728 97.4776 48.0993C97.8273 48.1257 98.1368 47.8004 98.1697 47.3724C98.202 46.9444 97.9454 46.5758 97.5963 46.5494C97.2466 46.5229 96.9372 46.8482 96.9042 47.2755V47.2762Z" fill="#F7A491"/>
<path d="M97.5956 46.55C97.5956 46.55 96.5126 46.5442 96.3 45.7945C96.0873 45.0449 95.0923 43.2909 93.2254 43.4399C91.3586 43.589 95.0974 42.401 95.2353 42.4356C95.3731 42.4708 97.0251 42.8775 97.0251 42.8775C97.0251 42.8775 98.0326 44.2439 98.0495 44.3702C98.0663 44.4965 98.1162 45.8401 98.1162 45.8401L97.5941 46.55H97.5956Z" fill="#0E2E35"/>
<path d="M93.0795 48.426L94.887 48.5699C94.887 48.5699 94.7909 49.2542 93.9946 49.2138C93.023 49.1646 93.0802 48.426 93.0802 48.426H93.0795Z" fill="white"/>
</g>
</g>
<defs>
<clipPath id="clip0_8_721">
<rect width="132" height="134" fill="white"/>
</clipPath>
<clipPath id="clip1_8_721">
<rect width="130.376" height="106.516" fill="white" transform="matrix(-1 0 0 1 133.685 6.68274)"/>
</clipPath>
</defs>
</svg>
