<svg width="107" height="44" viewBox="0 0 107 44" fill="none" xmlns="http://www.w3.org/2000/svg">
<path d="M77.6322 34.9063H79.0105C80.0166 34.9063 80.5196 35.258 80.5196 35.9615C80.5196 36.4436 80.3413 36.819 79.9849 37.0877C79.6363 37.3564 79.1452 37.4908 78.5115 37.4908H76.5866C76.3568 38.1705 75.941 39.0715 75.3389 40.1938C74.2933 42.1696 72.7724 43.1575 70.7761 43.1575C69.5642 43.1575 68.5462 42.7782 67.7224 42.0195C66.8986 41.2607 66.4867 40.3202 66.4867 39.1979C66.4867 38.4155 66.7124 37.6844 67.164 37.0047C67.6076 36.3329 68.1937 35.8271 68.9225 35.4873C69.7622 35.1 71.0019 34.9063 72.6417 34.9063H74.5785L74.923 34.0528C74.3369 34.2978 73.7982 34.4203 73.3071 34.4203C72.4595 34.4203 71.7703 34.2069 71.2396 33.7801C70.7167 33.3454 70.4553 32.7843 70.4553 32.0967C70.4553 31.6778 70.6256 31.0495 70.9663 30.2117L72.2614 27.0227L72.3921 26.6907C72.7724 25.7976 73.3625 25.3511 74.1626 25.3511C74.5111 25.3511 74.8003 25.4617 75.03 25.683C75.2676 25.9043 75.3864 26.1849 75.3864 26.5247C75.3864 26.7539 75.2835 27.1254 75.0775 27.6391L73.9131 30.4725C73.7309 30.9309 73.6358 31.2273 73.6279 31.3616C73.6041 31.7489 73.8497 31.9426 74.3646 31.9426C74.729 31.9426 75.1013 31.8359 75.4815 31.6225C75.8617 31.4091 76.1033 31.168 76.2063 30.8993L77.7985 27.0227L77.9174 26.6907C78.2897 25.7976 78.8798 25.3511 79.6878 25.3511C80.0364 25.3511 80.3255 25.4657 80.5552 25.6949C80.7929 25.9162 80.9117 26.1928 80.9117 26.5247C80.9117 26.7539 80.8523 27.0187 80.7334 27.319L80.5909 27.6391L77.6322 34.9063ZM73.7467 37.4908H72.0832C70.2613 37.4908 69.3503 38.0598 69.3503 39.1979C69.3503 39.601 69.477 39.925 69.7305 40.17C69.9761 40.4151 70.3088 40.5376 70.7286 40.5376C71.3069 40.5376 71.8178 40.3123 72.2614 39.8618C72.7129 39.4113 73.208 38.621 73.7467 37.4908Z" fill="white"/>
<path d="M67.5679 31.8358H68.8156C69.8216 31.8358 70.3246 32.1875 70.3246 32.8909C70.3246 33.373 70.1464 33.7484 69.7899 34.0172C69.4414 34.2859 68.9502 34.4202 68.3165 34.4202H66.1777C65.5915 34.4202 65.1281 34.2819 64.7875 34.0053C64.4469 33.7287 64.2766 33.3572 64.2766 32.8909C64.2766 32.6459 64.3914 32.2389 64.6212 31.6698L69.4216 19.8858L69.5523 19.5657C69.9167 18.6805 70.4989 18.2379 71.299 18.2379C71.6317 18.2379 71.9129 18.3486 72.1426 18.5699C72.3802 18.7912 72.4991 19.0559 72.4991 19.3642C72.4991 19.6013 72.4397 19.87 72.3208 20.1703L72.1901 20.4904L67.5679 31.8358Z" fill="white"/>
<path d="M61.0803 31.8358H62.4229C63.421 31.8358 63.9201 32.1875 63.9201 32.8909C63.9201 33.373 63.7419 33.7484 63.3854 34.0171C63.0369 34.2859 62.5457 34.4202 61.912 34.4202H60.0227C59.3256 34.4202 58.7751 34.278 58.3711 33.9934C57.975 33.7089 57.777 33.3216 57.777 32.8316C57.777 32.5708 57.8602 32.2389 58.0265 31.8358L59.9871 27.0226L60.1178 26.6906C60.4822 25.7976 61.0684 25.351 61.8764 25.351C62.2091 25.351 62.4942 25.4617 62.7319 25.683C62.9774 25.9043 63.1002 26.169 63.1002 26.4773C63.1002 26.7302 62.9933 27.1174 62.7794 27.6391L61.0803 31.8358ZM62.6487 21.5692C63.1082 21.5692 63.4963 21.7312 63.8132 22.0553C64.1379 22.3714 64.3003 22.7587 64.3003 23.2171C64.3003 23.6755 64.1379 24.0667 63.8132 24.3907C63.4963 24.7069 63.1082 24.865 62.6487 24.865C62.1893 24.865 61.7971 24.7069 61.4724 24.3907C61.1555 24.0667 60.9971 23.6755 60.9971 23.2171C60.9971 22.7587 61.1555 22.3714 61.4724 22.0553C61.7971 21.7312 62.1893 21.5692 62.6487 21.5692Z" fill="white"/>
<path d="M54.4143 31.8358H55.8283C56.8264 31.8358 57.3255 32.1875 57.3255 32.8909C57.3255 33.373 57.1472 33.7484 56.7908 34.0172C56.4422 34.2859 55.955 34.4202 55.3292 34.4202H52.9172C52.3943 34.4202 51.9705 34.2819 51.6458 34.0053C51.321 33.7287 51.1586 33.3651 51.1586 32.9146C51.1586 32.6064 51.2655 32.1875 51.4794 31.658L52.5963 28.9431C52.6597 28.7851 52.6914 28.6389 52.6914 28.5045C52.6914 27.9908 52.43 27.7339 51.9072 27.7339C51.5032 27.7339 51.1031 27.9157 50.7071 28.2793C50.311 28.6428 49.9941 29.1249 49.7565 29.7256L48.4257 32.9976C47.99 34.0567 47.3563 34.5862 46.5245 34.5862C46.1997 34.5862 45.9225 34.4795 45.6928 34.2661C45.463 34.0527 45.3482 33.7998 45.3482 33.5074C45.3482 33.2782 45.4076 33.0095 45.5264 32.7012L45.6571 32.3812L46.9998 29.0736C47.1186 28.7811 47.178 28.5519 47.178 28.386C47.178 28.2121 47.0988 28.0619 46.9404 27.9355C46.782 27.8011 46.5958 27.7339 46.3819 27.7339C45.5264 27.7339 44.8491 28.3504 44.3501 29.5833L42.9599 32.9858C42.5242 34.0527 41.8944 34.5862 41.0706 34.5862C40.7458 34.5862 40.4646 34.4835 40.2269 34.278C39.9972 34.0646 39.8824 33.8077 39.8824 33.5074C39.8824 33.2703 39.9418 33.0016 40.0606 32.7012L40.1913 32.3812L42.5559 26.5721C42.8886 25.7581 43.3876 25.351 44.053 25.351C44.7422 25.351 45.1699 25.6751 45.3363 26.3232C45.875 25.8648 46.3106 25.5605 46.6433 25.4103C46.984 25.2601 47.3998 25.1851 47.891 25.1851C48.9525 25.1851 49.7486 25.6474 50.2793 26.5721C51.1665 25.6474 52.1646 25.1851 53.2736 25.1851C54.0341 25.1851 54.6678 25.4064 55.1748 25.8489C55.6897 26.2836 55.9471 26.8211 55.9471 27.4613C55.9471 27.8643 55.86 28.2793 55.6857 28.706L54.4143 31.8358Z" fill="white"/>
<path d="M36.8524 31.8358H38.1594C39.1575 31.8358 39.6566 32.1836 39.6566 32.8791C39.6566 33.3612 39.4784 33.7405 39.1219 34.0172C38.7654 34.2859 38.2743 34.4202 37.6485 34.4202H36.1276C35.4463 34.4202 34.9829 34.1555 34.7374 33.6259C34.1432 34.1555 33.5689 34.4202 33.0144 34.4202H31.6599C30.7885 34.4202 30.0835 34.112 29.5448 33.4955C29.0141 32.8712 28.7487 32.0571 28.7487 31.0534C28.7487 29.5359 29.2715 28.1805 30.3172 26.987C31.3707 25.7857 32.559 25.1851 33.8818 25.1851C34.8958 25.1851 35.6364 25.5368 36.1038 26.2402C36.4999 25.6474 37.0187 25.351 37.6604 25.351C38.0089 25.351 38.2981 25.4617 38.5278 25.683C38.7654 25.9043 38.8843 26.1769 38.8843 26.501C38.8843 26.7223 38.8209 26.987 38.6941 27.2953L38.5634 27.6154L36.8524 31.8358ZM32.5391 31.8951H32.8362C33.4858 31.8951 33.9175 31.6303 34.1314 31.1008L34.9631 29.0498C35.074 28.7811 35.1295 28.5559 35.1295 28.3741C35.1295 28.1607 35.0225 27.975 34.8087 27.8169C34.6027 27.6588 34.3532 27.5798 34.0601 27.5798C33.4818 27.5798 32.9194 27.9157 32.3728 28.5875C31.8262 29.2593 31.5529 29.9548 31.5529 30.674C31.5529 31.4881 31.8817 31.8951 32.5391 31.8951Z" fill="white"/>
<path d="M23.5681 25.517H25.1009H25.4098C26.297 25.517 26.7406 25.8964 26.7406 26.6551C26.7406 27.1293 26.5584 27.5324 26.1941 27.8643C25.8376 28.1884 25.394 28.3504 24.8632 28.3504H24.5543H22.4155L20.1104 34.029C18.5102 37.9491 16.1417 39.9092 13.0048 39.9092C11.365 39.9092 10.0065 39.3796 8.92918 38.3206C7.85186 37.2694 7.3132 35.9416 7.3132 34.3372C7.3132 33.0885 7.63006 31.8951 8.26378 30.757C8.90542 29.6189 9.80055 28.6389 10.9492 27.8169C11.9235 27.1293 13.0563 26.584 14.3475 26.1809C15.6466 25.7778 16.9259 25.5763 18.1854 25.5763L19.8608 25.5288L20.3836 25.517L22.665 19.7909L22.7957 19.459C22.9779 18.969 23.2077 18.6449 23.4849 18.4869C23.7701 18.3209 24.2454 18.2379 24.9108 18.2379H31.0064C32.1074 18.2379 32.658 18.6252 32.658 19.3997C32.658 19.8581 32.4758 20.2533 32.1114 20.5852C31.747 20.9093 31.3034 21.0713 30.7806 21.0713H30.4598H25.3861L23.5681 25.517ZM19.2311 28.3504H18.5894C16.2447 28.3504 14.3712 28.8839 12.9691 29.9508C11.4007 31.1442 10.6165 32.4918 10.6165 33.9934C10.6165 34.7996 10.862 35.4753 11.3532 36.0207C11.8522 36.566 12.4701 36.8387 13.2068 36.8387C14.9178 36.8387 16.3239 35.4832 17.425 32.7724L19.2311 28.3504Z" fill="white"/>
<path d="M106.65 35.3049C106.706 35.457 106.733 35.5815 106.733 35.6783C106.74 35.7682 106.716 35.8374 106.66 35.8858C106.605 35.9342 106.511 35.9653 106.38 35.9791C106.255 35.993 106.085 35.9999 105.87 35.9999C105.655 35.9999 105.482 35.993 105.35 35.9791C105.226 35.9722 105.129 35.9584 105.059 35.9377C104.997 35.91 104.948 35.8754 104.914 35.8339C104.886 35.7924 104.858 35.7406 104.831 35.6783L103.677 32.4107H98.083L96.9809 35.6368C96.9601 35.6991 96.9324 35.7544 96.8977 35.8028C96.8631 35.8443 96.8111 35.8823 96.7418 35.9169C96.6794 35.9446 96.5858 35.9653 96.4611 35.9791C96.3432 35.993 96.1873 35.9999 95.9932 35.9999C95.7922 35.9999 95.6259 35.9895 95.4942 35.9688C95.3694 35.9549 95.2793 35.9238 95.2238 35.8754C95.1753 35.827 95.1511 35.7579 95.1511 35.6679C95.158 35.5711 95.1892 35.4467 95.2446 35.2945L99.7569 22.8258C99.7846 22.7498 99.8193 22.6875 99.8609 22.6391C99.9094 22.5907 99.9752 22.5527 100.058 22.525C100.149 22.4973 100.259 22.4801 100.391 22.4731C100.53 22.4593 100.703 22.4524 100.911 22.4524C101.133 22.4524 101.316 22.4593 101.462 22.4731C101.608 22.4801 101.725 22.4973 101.816 22.525C101.906 22.5527 101.975 22.5942 102.023 22.6495C102.072 22.6979 102.11 22.7601 102.138 22.8362L106.65 35.3049ZM100.859 24.2988H100.849L98.5301 30.9896H103.209L100.859 24.2988Z" fill="white"/>
<path d="M95.4214 26.4462C95.4214 27.117 95.3105 27.7222 95.0887 28.2616C94.8669 28.801 94.548 29.2609 94.1322 29.6412C93.7232 30.0216 93.2172 30.3155 92.6142 30.5229C92.0181 30.7304 91.3042 30.8341 90.4724 30.8341H88.9441V35.6681C88.9441 35.7234 88.9268 35.7718 88.8921 35.8133C88.8644 35.8548 88.8159 35.8894 88.7465 35.917C88.6842 35.9378 88.5941 35.9551 88.4762 35.9689C88.3653 35.9897 88.2232 36 88.0499 36C87.8767 36 87.7311 35.9897 87.6133 35.9689C87.5024 35.9551 87.4123 35.9378 87.343 35.917C87.2736 35.8894 87.2251 35.8548 87.1974 35.8133C87.1697 35.7718 87.1558 35.7234 87.1558 35.6681V23.2824C87.1558 23.0058 87.2286 22.8087 87.3741 22.6911C87.5197 22.5736 87.6826 22.5148 87.8628 22.5148H90.7428C91.0339 22.5148 91.3111 22.5286 91.5745 22.5563C91.8448 22.577 92.1602 22.6289 92.5206 22.7119C92.888 22.7879 93.2588 22.9366 93.6331 23.1579C94.0143 23.3723 94.3366 23.6385 94.6 23.9567C94.8634 24.2748 95.0644 24.6448 95.203 25.0666C95.3486 25.4815 95.4214 25.9414 95.4214 26.4462ZM93.5395 26.5915C93.5395 26.0451 93.4356 25.5887 93.2276 25.2222C93.0266 24.8557 92.7736 24.5825 92.4686 24.4027C92.1706 24.2229 91.8587 24.1088 91.5329 24.0604C91.2141 24.012 90.9022 23.9878 90.5972 23.9878H88.9441V29.3715H90.5556C91.0962 29.3715 91.5433 29.3024 91.8968 29.164C92.2572 29.0257 92.5588 28.8356 92.8013 28.5935C93.0439 28.3446 93.2276 28.0506 93.3524 27.7118C93.4772 27.366 93.5395 26.9926 93.5395 26.5915Z" fill="white"/>
<path d="M21.1426 10.1407L19.895 13.5743C19.8534 13.6849 19.746 13.7679 19.5727 13.8232C19.4063 13.8855 19.1499 13.9166 18.8033 13.9166C18.6231 13.9166 18.4775 13.9062 18.3666 13.8855C18.2557 13.8717 18.1691 13.844 18.1067 13.8025C18.0513 13.761 18.0201 13.7057 18.0131 13.6365C18.0062 13.5674 18.0235 13.4844 18.0651 13.3876L19.3543 10.1407C19.292 10.1131 19.2331 10.0681 19.1776 10.0059C19.1222 9.94364 19.084 9.87794 19.0632 9.80879L15.7258 0.887767C15.6704 0.742541 15.6426 0.628435 15.6426 0.545449C15.6426 0.462462 15.6704 0.396765 15.7258 0.348356C15.7813 0.299948 15.8714 0.268828 15.9961 0.254997C16.1209 0.23425 16.2872 0.223877 16.4952 0.223877C16.7031 0.223877 16.866 0.230792 16.9838 0.244624C17.1017 0.251539 17.1952 0.268828 17.2646 0.29649C17.3339 0.324152 17.3824 0.365645 17.4101 0.420969C17.4448 0.469378 17.4794 0.538533 17.5141 0.628435L20.1861 8.11794H20.2173L22.7957 0.586942C22.8373 0.455547 22.8858 0.372561 22.9413 0.337983C23.0037 0.29649 23.0938 0.268828 23.2116 0.254997C23.3294 0.23425 23.4993 0.223877 23.7211 0.223877C23.9151 0.223877 24.0746 0.23425 24.1993 0.254997C24.3241 0.268828 24.4142 0.299948 24.4696 0.348356C24.532 0.396765 24.5632 0.462462 24.5632 0.545449C24.5632 0.628435 24.5424 0.732168 24.5008 0.856647L21.1426 10.1407Z" fill="white"/>
<path d="M14.1455 9.88148C14.1455 9.93681 14.1316 9.98522 14.1039 10.0267C14.0762 10.0613 14.0311 10.0924 13.9687 10.1201C13.9064 10.1477 13.8197 10.1685 13.7088 10.1823C13.5979 10.1961 13.4593 10.2031 13.2929 10.2031C13.1197 10.2031 12.9776 10.1961 12.8667 10.1823C12.7558 10.1685 12.6657 10.1477 12.5963 10.1201C12.534 10.0924 12.4889 10.0613 12.4612 10.0267C12.4335 9.98522 12.4196 9.93681 12.4196 9.88148V4.2073C12.4196 3.81312 12.3849 3.45351 12.3156 3.12848C12.2463 2.80345 12.1354 2.52337 11.9829 2.28824C11.8304 2.05312 11.6364 1.87331 11.4007 1.74883C11.165 1.62435 10.8878 1.56211 10.5689 1.56211C10.1739 1.56211 9.7753 1.71426 9.37329 2.01854C8.9782 2.32282 8.54153 2.76887 8.06327 3.35669V9.88148C8.06327 9.93681 8.04941 9.98522 8.02169 10.0267C7.99396 10.0613 7.94544 10.0924 7.87613 10.1201C7.81375 10.1477 7.72711 10.1685 7.6162 10.1823C7.5053 10.1961 7.36668 10.2031 7.20033 10.2031C7.04091 10.2031 6.90228 10.1961 6.78445 10.1823C6.67355 10.1685 6.58344 10.1477 6.51413 10.1201C6.45175 10.0924 6.40669 10.0613 6.37897 10.0267C6.35817 9.98522 6.34778 9.93681 6.34778 9.88148V4.2073C6.34778 3.81312 6.30966 3.45351 6.23341 3.12848C6.15717 2.80345 6.0428 2.52337 5.89031 2.28824C5.73782 2.05312 5.54375 1.87331 5.30808 1.74883C5.07935 1.62435 4.80556 1.56211 4.48672 1.56211C4.09164 1.56211 3.69309 1.71426 3.29108 2.01854C2.88906 2.32282 2.45239 2.76887 1.98106 3.35669V9.88148C1.98106 9.93681 1.9672 9.98522 1.93947 10.0267C1.91175 10.0613 1.86669 10.0924 1.80431 10.1201C1.74193 10.1477 1.65529 10.1685 1.54439 10.1823C1.43349 10.1961 1.2914 10.2031 1.11811 10.2031C0.951762 10.2031 0.813136 10.1961 0.702236 10.1823C0.591335 10.1685 0.501228 10.1477 0.431915 10.1201C0.369533 10.0924 0.32448 10.0613 0.296755 10.0267C0.275961 9.98522 0.265564 9.93681 0.265564 9.88148V0.545533C0.265564 0.490209 0.275961 0.445258 0.296755 0.41068C0.317549 0.369187 0.359136 0.33461 0.421518 0.306947C0.4839 0.27237 0.56361 0.251623 0.660648 0.244708C0.757686 0.230877 0.885915 0.223961 1.04533 0.223961C1.19782 0.223961 1.32259 0.230877 1.41962 0.244708C1.52359 0.251623 1.6033 0.27237 1.65875 0.306947C1.71421 0.33461 1.75233 0.369187 1.77312 0.41068C1.80085 0.445258 1.81471 0.490209 1.81471 0.545533V1.77995C2.34149 1.19213 2.85094 0.763372 3.34306 0.493666C3.84211 0.217046 4.34463 0.0787354 4.85062 0.0787354C5.23877 0.0787354 5.58533 0.123686 5.89031 0.213588C6.20222 0.30349 6.47601 0.431427 6.71167 0.597399C6.94733 0.756456 7.14834 0.950091 7.31469 1.1783C7.48104 1.3996 7.61967 1.64856 7.73057 1.92518C8.04248 1.58632 8.33706 1.29932 8.61431 1.0642C8.89849 0.829069 9.16882 0.638892 9.42527 0.493666C9.68866 0.348441 9.94166 0.244708 10.1843 0.182468C10.4338 0.113313 10.6833 0.0787354 10.9328 0.0787354C11.5359 0.0787354 12.0418 0.185926 12.4508 0.400307C12.8597 0.607773 13.189 0.887851 13.4385 1.24054C13.695 1.59323 13.8752 2.00817 13.9791 2.48534C14.09 2.95559 14.1455 3.45351 14.1455 3.97909V9.88148Z" fill="white"/>
<rect x="0.265564" y="14.7646" width="20.6072" height="1.46859" fill="#B8817D"/>
<rect x="0.265564" y="17.7018" width="20.6072" height="1.46859" fill="#B8817D"/>
</svg>
