<svg xmlns="http://www.w3.org/2000/svg" width="24" height="25" viewBox="0 0 24 25" fill="none">
  <path d="M22 6.45007V18.4501C22 19.0001 21.804 19.4711 21.412 19.8631C21.02 20.2551 20.5493 20.4507 20 20.4501H4C3.45 20.4501 2.979 20.2541 2.587 19.8621C2.195 19.4701 1.99934 18.9994 2 18.4501V6.45007C2 5.90007 2.196 5.42907 2.588 5.03707C2.98 4.64507 3.45067 4.44941 4 4.45007H20C20.55 4.45007 21.021 4.64607 21.413 5.03807C21.805 5.43007 22.0007 5.90074 22 6.45007ZM4 8.45008H20V6.45007H4V8.45008ZM4 12.4501V18.4501H20V12.4501H4Z" fill="#545871"/>
</svg>