<svg xmlns="http://www.w3.org/2000/svg" width="24" height="25" viewBox="0 0 24 25" fill="none">
  <path d="M11 18.4501H13V16.4501H11V18.4501ZM12 2.45007C10.6868 2.45007 9.38642 2.70873 8.17317 3.21128C6.95991 3.71383 5.85752 4.45042 4.92893 5.37901C3.05357 7.25437 2 9.79791 2 12.4501C2 15.1022 3.05357 17.6458 4.92893 19.5211C5.85752 20.4497 6.95991 21.1863 8.17317 21.6889C9.38642 22.1914 10.6868 22.4501 12 22.4501C14.6522 22.4501 17.1957 21.3965 19.0711 19.5211C20.9464 17.6458 22 15.1022 22 12.4501C22 11.1369 21.7413 9.8365 21.2388 8.62324C20.7363 7.40998 19.9997 6.30759 19.0711 5.37901C18.1425 4.45042 17.0401 3.71383 15.8268 3.21128C14.6136 2.70873 13.3132 2.45007 12 2.45007ZM12 20.4501C7.59 20.4501 4 16.8601 4 12.4501C4 8.04007 7.59 4.45007 12 4.45007C16.41 4.45007 20 8.04007 20 12.4501C20 16.8601 16.41 20.4501 12 20.4501ZM12 6.45007C10.9391 6.45007 9.92172 6.8715 9.17157 7.62165C8.42143 8.37179 8 9.38921 8 10.4501H10C10 9.91964 10.2107 9.41093 10.5858 9.03586C10.9609 8.66079 11.4696 8.45007 12 8.45007C12.5304 8.45007 13.0391 8.66079 13.4142 9.03586C13.7893 9.41093 14 9.91964 14 10.4501C14 12.4501 11 12.2001 11 15.4501H13C13 13.2001 16 12.9501 16 10.4501C16 9.38921 15.5786 8.37179 14.8284 7.62165C14.0783 6.8715 13.0609 6.45007 12 6.45007Z" fill="#545871"/>
</svg>