<svg xmlns="http://www.w3.org/2000/svg" width="24" height="25" viewBox="0 0 24 25" fill="none">
  <path d="M12 8.45007V16.4501M3 12.4501C3 13.632 3.23279 14.8023 3.68508 15.8942C4.13738 16.9862 4.80031 17.9783 5.63604 18.814C6.47177 19.6498 7.46392 20.3127 8.55585 20.765C9.64778 21.2173 10.8181 21.4501 12 21.4501C13.1819 21.4501 14.3522 21.2173 15.4442 20.765C16.5361 20.3127 17.5282 19.6498 18.364 18.814C19.1997 17.9783 19.8626 16.9862 20.3149 15.8942C20.7672 14.8023 21 13.632 21 12.4501C21 11.2682 20.7672 10.0979 20.3149 9.00592C19.8626 7.91399 19.1997 6.92184 18.364 6.08611C17.5282 5.25038 16.5361 4.58745 15.4442 4.13516C14.3522 3.68287 13.1819 3.45007 12 3.45007C10.8181 3.45007 9.64778 3.68287 8.55585 4.13516C7.46392 4.58745 6.47177 5.25038 5.63604 6.08611C4.80031 6.92184 4.13738 7.91399 3.68508 9.00592C3.23279 10.0979 3 11.2682 3 12.4501Z" stroke="#545871" stroke-width="2" stroke-linecap="round" stroke-linejoin="round"/>
</svg>