<svg xmlns="http://www.w3.org/2000/svg" width="24" height="25" viewBox="0 0 24 25" fill="none">
  <path d="M18 8.45007H17V6.45007C17 3.69007 14.76 1.45007 12 1.45007C9.24 1.45007 7 3.69007 7 6.45007V8.45007H6C4.9 8.45007 4 9.35007 4 10.4501V20.4501C4 21.5501 4.9 22.4501 6 22.4501H18C19.1 22.4501 20 21.5501 20 20.4501V10.4501C20 9.35007 19.1 8.45007 18 8.45007ZM9 6.45007C9 4.79007 10.34 3.45007 12 3.45007C13.66 3.45007 15 4.79007 15 6.45007V8.45007H9V6.45007ZM18 20.4501H6V10.4501H18V20.4501ZM12 17.4501C13.1 17.4501 14 16.5501 14 15.4501C14 14.3501 13.1 13.4501 12 13.4501C10.9 13.4501 10 14.3501 10 15.4501C10 16.5501 10.9 17.4501 12 17.4501Z" fill="#545871"/>
</svg>