<svg width="25" height="24" viewBox="0 0 25 24" fill="none" xmlns="http://www.w3.org/2000/svg">
<path d="M21.4681 18.448C21.4584 18.7932 21.3794 19.1329 21.2358 19.4469C21.0923 19.7609 20.8871 20.0429 20.6325 20.2761C20.3778 20.5093 20.0789 20.689 19.7535 20.8044C19.428 20.9198 19.0827 20.9687 18.7381 20.948C16.5851 20.96 14.4321 20.948 12.2791 20.948C12.1464 20.948 12.0193 20.8953 11.9255 20.8016C11.8317 20.7078 11.7791 20.5806 11.7791 20.448C11.7791 20.3154 11.8317 20.1882 11.9255 20.0945C12.0193 20.0007 12.1464 19.948 12.2791 19.948C14.4791 19.948 16.6791 19.98 18.8791 19.948C19.9861 19.932 20.4681 19.1 20.4681 18.11V5.64701C20.4758 5.33228 20.3872 5.02269 20.2142 4.75964C20.0413 4.49659 19.7921 4.29262 19.5001 4.17501C19.1548 4.08079 18.7956 4.04863 18.4391 4.08001H12.2791C12.1464 4.08001 12.0193 4.02734 11.9255 3.93357C11.8317 3.8398 11.7791 3.71262 11.7791 3.58001C11.7791 3.44741 11.8317 3.32023 11.9255 3.22646C12.0193 3.13269 12.1464 3.08001 12.2791 3.08001C14.5031 3.08001 16.7441 2.99501 18.9661 3.08001C19.3063 3.08862 19.6415 3.16481 19.952 3.30416C20.2626 3.4435 20.5423 3.64322 20.775 3.89168C21.0076 4.14015 21.1885 4.4324 21.3072 4.75144C21.4258 5.07047 21.4798 5.40991 21.4661 5.75001L21.4681 18.448Z" fill="#535763"/>
<path d="M3.67603 11.6629C3.59154 11.7448 3.54208 11.8563 3.53803 11.9739C3.53803 11.9889 3.53803 12.0019 3.53203 12.0169C3.52603 12.0319 3.53203 12.0439 3.53803 12.0579C3.54203 12.1758 3.59148 12.2876 3.67603 12.3699L7.34503 16.0389C7.43933 16.13 7.56563 16.1804 7.69673 16.1792C7.82783 16.1781 7.95323 16.1255 8.04594 16.0328C8.13864 15.9401 8.19122 15.8147 8.19236 15.6836C8.1935 15.5525 8.14311 15.4262 8.05203 15.3319L5.23703 12.5159H15.979C16.1116 12.5159 16.2388 12.4632 16.3326 12.3694C16.4263 12.2757 16.479 12.1485 16.479 12.0159C16.479 11.8833 16.4263 11.7561 16.3326 11.6623C16.2388 11.5686 16.1116 11.5159 15.979 11.5159H5.23703L8.05203 8.69989C8.14311 8.60559 8.1935 8.47929 8.19236 8.34819C8.19122 8.2171 8.13864 8.09169 8.04594 7.99899C7.95323 7.90628 7.82783 7.8537 7.69673 7.85256C7.56563 7.85142 7.43933 7.90182 7.34503 7.99289L3.67603 11.6629Z" fill="#535763"/>
</svg>
