<svg width="25" height="24" viewBox="0 0 25 24" fill="none" xmlns="http://www.w3.org/2000/svg">
<path fill-rule="evenodd" clip-rule="evenodd" d="M12.448 1.25H12.552C13.451 1.25 14.2 1.25 14.794 1.33C15.422 1.414 15.989 1.6 16.444 2.055C16.9 2.511 17.086 3.078 17.17 3.705C17.23 4.145 17.245 4.669 17.249 5.275C17.897 5.296 18.475 5.335 18.989 5.403C20.161 5.561 21.11 5.893 21.859 6.641C22.607 7.39 22.939 8.339 23.097 9.511C23.25 10.651 23.25 12.106 23.25 13.944V14.056C23.25 15.894 23.25 17.35 23.097 18.489C22.939 19.661 22.607 20.61 21.859 21.359C21.11 22.107 20.161 22.439 18.989 22.597C17.849 22.75 16.394 22.75 14.556 22.75H10.444C8.606 22.75 7.15 22.75 6.011 22.597C4.839 22.439 3.89 22.107 3.141 21.359C2.393 20.61 2.061 19.661 1.903 18.489C1.75 17.349 1.75 15.894 1.75 14.056V13.944C1.75 12.106 1.75 10.65 1.903 9.511C2.061 8.339 2.393 7.39 3.141 6.641C3.89 5.893 4.839 5.561 6.011 5.403C6.58852 5.3315 7.16924 5.28878 7.751 5.275C7.755 4.669 7.771 4.145 7.83 3.705C7.914 3.078 8.1 2.511 8.555 2.055C9.011 1.6 9.578 1.415 10.205 1.33C10.8 1.25 11.55 1.25 12.448 1.25ZM9.252 5.252C9.63 5.25 10.027 5.25 10.444 5.25H14.556C14.973 5.25 15.37 5.25 15.748 5.252C15.744 4.682 15.73 4.252 15.684 3.905C15.621 3.444 15.514 3.246 15.384 3.116C15.254 2.986 15.056 2.879 14.594 2.816C14.112 2.752 13.464 2.75 12.5 2.75C11.536 2.75 10.888 2.752 10.405 2.817C9.944 2.879 9.746 2.986 9.616 3.117C9.486 3.247 9.379 3.444 9.316 3.905C9.27 4.251 9.256 4.681 9.252 5.252ZM6.21 6.89C5.204 7.025 4.624 7.279 4.2 7.702C3.778 8.125 3.524 8.705 3.389 9.711C3.251 10.738 3.249 12.093 3.249 14C3.249 15.907 3.251 17.262 3.389 18.29C3.524 19.295 3.778 19.875 4.201 20.298C4.624 20.721 5.204 20.975 6.21 21.11C7.238 21.248 8.592 21.25 10.499 21.25H14.499C16.406 21.25 17.761 21.248 18.789 21.11C19.794 20.975 20.374 20.721 20.797 20.298C21.22 19.875 21.474 19.295 21.609 18.289C21.747 17.262 21.749 15.907 21.749 14C21.749 12.093 21.747 10.739 21.609 9.71C21.474 8.705 21.22 8.125 20.797 7.702C20.374 7.279 19.794 7.025 18.788 6.89C17.761 6.752 16.406 6.75 14.499 6.75H10.499C8.592 6.75 7.239 6.752 6.21 6.89ZM12.5 9.25C12.6989 9.25 12.8897 9.32902 13.0303 9.46967C13.171 9.61032 13.25 9.80109 13.25 10V10.01C14.339 10.284 15.25 11.143 15.25 12.333C15.25 12.5319 15.171 12.7227 15.0303 12.8633C14.8897 13.004 14.6989 13.083 14.5 13.083C14.3011 13.083 14.1103 13.004 13.9697 12.8633C13.829 12.7227 13.75 12.5319 13.75 12.333C13.75 11.949 13.324 11.417 12.5 11.417C11.676 11.417 11.25 11.949 11.25 12.333C11.25 12.717 11.676 13.25 12.5 13.25C13.885 13.25 15.25 14.21 15.25 15.667C15.25 16.857 14.339 17.715 13.25 17.99V18C13.25 18.1989 13.171 18.3897 13.0303 18.5303C12.8897 18.671 12.6989 18.75 12.5 18.75C12.3011 18.75 12.1103 18.671 11.9697 18.5303C11.829 18.3897 11.75 18.1989 11.75 18V17.99C10.661 17.716 9.75 16.857 9.75 15.667C9.75 15.4681 9.82902 15.2773 9.96967 15.1367C10.1103 14.996 10.3011 14.917 10.5 14.917C10.6989 14.917 10.8897 14.996 11.0303 15.1367C11.171 15.2773 11.25 15.4681 11.25 15.667C11.25 16.051 11.676 16.583 12.5 16.583C13.324 16.583 13.75 16.051 13.75 15.667C13.75 15.283 13.324 14.75 12.5 14.75C11.115 14.75 9.75 13.79 9.75 12.333C9.75 11.143 10.661 10.284 11.75 10.01V10C11.75 9.80109 11.829 9.61032 11.9697 9.46967C12.1103 9.32902 12.3011 9.25 12.5 9.25Z" fill="#545871"/>
<path d="M16.5 6C16.5 4.114 16.5 3.172 15.914 2.586C15.328 2 14.386 2 12.5 2C10.614 2 9.672 2 9.086 2.586C8.5 3.172 8.5 4.114 8.5 6M2.5 14C2.5 10.229 2.5 8.343 3.672 7.172C4.843 6 6.729 6 10.5 6H14.5C18.271 6 20.157 6 21.328 7.172C22.5 8.343 22.5 10.229 22.5 14C22.5 17.771 22.5 19.657 21.328 20.828C20.157 22 18.271 22 14.5 22H10.5C6.729 22 4.843 22 3.672 20.828C2.5 19.657 2.5 17.771 2.5 14Z" stroke="#545871"/>
<path d="M12.5 17.333C13.605 17.333 14.5 16.587 14.5 15.667C14.5 14.747 13.605 14 12.5 14C11.395 14 10.5 13.254 10.5 12.333C10.5 11.413 11.395 10.667 12.5 10.667M12.5 17.333C11.395 17.333 10.5 16.587 10.5 15.667M12.5 17.333V18M12.5 10.667V10M12.5 10.667C13.605 10.667 14.5 11.413 14.5 12.333" stroke="#545871" stroke-linecap="round"/>
</svg>
