<svg width="25" height="24" viewBox="0 0 25 24" fill="none" xmlns="http://www.w3.org/2000/svg">
<path d="M6.5 19V10C6.5 8.4087 7.13214 6.88258 8.25736 5.75736C9.38258 4.63214 10.9087 4 12.5 4C14.0913 4 15.6174 4.63214 16.7426 5.75736C17.8679 6.88258 18.5 8.4087 18.5 10V19M6.5 19H18.5M6.5 19H4.5M18.5 19H20.5M11.5 22H13.5" stroke="#545871" stroke-linecap="round" stroke-linejoin="round"/>
<path d="M12.5 4C13.0523 4 13.5 3.55228 13.5 3C13.5 2.44772 13.0523 2 12.5 2C11.9477 2 11.5 2.44772 11.5 3C11.5 3.55228 11.9477 4 12.5 4Z" stroke="#545871"/>
</svg>
