<svg xmlns="http://www.w3.org/2000/svg" width="24" height="25" viewBox="0 0 24 25" fill="none">
  <path d="M6 19.4501V10.4501C6 8.85877 6.63214 7.33265 7.75736 6.20743C8.88258 5.08221 10.4087 4.45007 12 4.45007C13.5913 4.45007 15.1174 5.08221 16.2426 6.20743C17.3679 7.33265 18 8.85877 18 10.4501V19.4501M6 19.4501H18M6 19.4501H4M18 19.4501H20M11 22.4501H13" stroke="#545871" stroke-width="2" stroke-linecap="round" stroke-linejoin="round"/>
  <path d="M12 4.45007C12.5523 4.45007 13 4.00236 13 3.45007C13 2.89779 12.5523 2.45007 12 2.45007C11.4477 2.45007 11 2.89779 11 3.45007C11 4.00236 11.4477 4.45007 12 4.45007Z" stroke="#545871" stroke-width="2.66667"/>
</svg>