<svg width="25" height="24" viewBox="0 0 25 24" fill="none" xmlns="http://www.w3.org/2000/svg">
<path d="M7.25457 18.1623H7.08165L6.94568 18.2692L3.54028 20.9446V4.47282C3.54028 4.35455 3.58727 4.24111 3.6709 4.15748C3.75454 4.07384 3.86797 4.02686 3.98625 4.02686H21.0137C21.132 4.02686 21.2454 4.07384 21.329 4.15748C21.4127 4.24111 21.4596 4.35454 21.4596 4.47282V17.7164C21.4596 17.8347 21.4127 17.9481 21.329 18.0317C21.2454 18.1154 21.132 18.1623 21.0137 18.1623H7.25457ZM11.5145 7.42806L11.2841 7.07353L10.8963 7.24175C9.07082 8.03342 7.74311 9.67028 7.74311 11.5723C7.74311 12.6342 8.04924 13.3396 8.62827 13.9546L8.62834 13.9546C9.02504 14.3758 9.64018 14.669 10.2921 14.669C10.5751 14.669 10.8554 14.6132 11.1169 14.5049C11.3784 14.3966 11.6161 14.2378 11.8162 14.0377C12.0164 13.8375 12.1751 13.5999 12.2834 13.3384C12.3918 13.0769 12.4475 12.7966 12.4475 12.5136L12.4475 12.511C12.4448 11.9698 12.2394 11.4493 11.8719 11.052C11.5153 10.6665 11.0312 10.4241 10.51 10.3691C10.5996 9.91475 10.879 9.26572 11.7561 8.79101L12.2325 8.53315L11.9373 8.07889L11.5145 7.42806ZM16.2443 7.42806L16.014 7.07353L15.6261 7.24175C13.8007 8.03342 12.4729 9.67028 12.4729 11.5723C12.4729 12.6342 12.7791 13.3396 13.3581 13.9546L13.3582 13.9546C13.7549 14.3758 14.37 14.669 15.0219 14.669C15.5936 14.669 16.1418 14.4419 16.546 14.0377C16.9503 13.6335 17.1774 13.0852 17.1774 12.5136L17.1774 12.511C17.1746 11.9698 16.9693 11.4493 16.6018 11.052C16.2452 10.6665 15.761 10.4241 15.2398 10.3691C15.3294 9.91475 15.6089 9.26572 16.4859 8.79101L16.9623 8.53315L16.6672 8.07889L16.2443 7.42806Z" stroke="#545871"/>
</svg>
