<svg width="16" height="16" viewBox="0 0 16 16" fill="none" xmlns="http://www.w3.org/2000/svg">
<path d="M15.046 0.116699C15.2536 0.116699 15.4527 0.199183 15.5996 0.346005C15.7464 0.492827 15.8289 0.69196 15.8289 0.899597V11.8602C15.8289 12.0678 15.7464 12.2669 15.5996 12.4138C15.4527 12.5606 15.2536 12.6431 15.046 12.6431H3.65871L0.170898 15.3832V0.899597C0.170898 0.69196 0.253382 0.492827 0.400204 0.346005C0.547026 0.199183 0.746159 0.116699 0.953796 0.116699H15.046ZM6.83727 3.57085C5.43824 4.17759 4.47684 5.40517 4.47684 6.77525C4.47684 7.55423 4.6937 8.03493 5.09689 8.46317C5.35055 8.73249 5.75218 8.9243 6.17259 8.9243C6.35251 8.9243 6.53067 8.88886 6.6969 8.82001C6.86312 8.75116 7.01416 8.65024 7.14138 8.52302C7.2686 8.39579 7.36952 8.24476 7.43837 8.07853C7.50723 7.91231 7.54267 7.73415 7.54267 7.55423C7.54092 7.20978 7.41022 6.87848 7.17633 6.62561C6.94245 6.37274 6.62233 6.21664 6.27907 6.18807C6.1542 6.17565 6.0283 6.17828 5.90406 6.1959V6.12388C5.90876 5.7794 5.98235 4.76163 7.18723 4.10948L6.83727 3.57085ZM10.7518 3.57085C9.35273 4.17759 8.39133 5.40517 8.39133 6.77525C8.39133 7.55423 8.60819 8.03493 9.01138 8.46317C9.26504 8.73249 9.66667 8.9243 10.0871 8.9243C10.4504 8.9243 10.7989 8.77995 11.0559 8.52302C11.3128 8.26608 11.4572 7.9176 11.4572 7.55423C11.4554 7.20978 11.3247 6.87848 11.0908 6.62561C10.8569 6.37274 10.5368 6.21664 10.1936 6.18807C10.0687 6.17565 9.94279 6.17828 9.81855 6.1959V6.12388C9.82325 5.7794 9.89684 4.76163 11.1017 4.10948L10.7518 3.57085Z" fill="#000"/>
</svg>
