<svg width="16" height="16" viewBox="0 0 16 16" fill="none" xmlns="http://www.w3.org/2000/svg">
<path fill-rule="evenodd" clip-rule="evenodd" d="M8.08306 1.75C4.43942 1.75 1.48584 4.54813 1.48584 8C1.48584 11.4519 4.43942 14.25 8.08306 14.25C11.7267 14.25 14.6803 11.4519 14.6803 8C14.6803 4.54813 11.7267 1.75 8.08306 1.75ZM8.08306 5.5C7.38318 5.5 6.71197 5.76339 6.21709 6.23223C5.7222 6.70107 5.44417 7.33696 5.44417 8C5.44417 8.66304 5.7222 9.29893 6.21709 9.76777C6.71197 10.2366 7.38318 10.5 8.08306 10.5C8.78294 10.5 9.45415 10.2366 9.94904 9.76777C10.4439 9.29893 10.722 8.66304 10.722 8C10.722 7.33696 10.4439 6.70107 9.94904 6.23223C9.45415 5.76339 8.78294 5.5 8.08306 5.5Z" fill="#B8817D"/>
</svg>
