<svg width="24" height="24" viewBox="0 0 24 24" fill="none" xmlns="http://www.w3.org/2000/svg">
<path d="M11.9999 3.09351L19.6917 7.54666V16.453L11.9999 20.9061L4.30811 16.453V7.54666L11.9999 3.09351ZM11.9999 14.4288C12.6441 14.4288 13.262 14.1729 13.7175 13.7174C14.173 13.2619 14.4289 12.644 14.4289 11.9998C14.4289 11.3556 14.173 10.7378 13.7175 10.2823C13.262 9.82674 12.6441 9.57083 11.9999 9.57083C11.3557 9.57083 10.7379 9.82674 10.2824 10.2823C9.82684 10.7378 9.57093 11.3556 9.57093 11.9998C9.57093 12.644 9.82684 13.2619 10.2824 13.7174C10.7379 14.1729 11.3557 14.4288 11.9999 14.4288Z" fill="#000"/>
</svg>
