<svg xmlns="http://www.w3.org/2000/svg" width="24" height="25" viewBox="0 0 24 25" fill="none">
  <path d="M11 17.4501H13V11.4501H11V17.4501ZM12 9.45007C12.2833 9.45007 12.521 9.35407 12.713 9.16207C12.905 8.97007 13.0007 8.73274 13 8.45007C13 8.16674 12.904 7.92907 12.712 7.73707C12.52 7.54507 12.2827 7.44941 12 7.45007C11.7167 7.45007 11.479 7.54607 11.287 7.73807C11.095 7.93007 10.9993 8.16741 11 8.45007C11 8.73341 11.096 8.97107 11.288 9.16307C11.48 9.35507 11.7173 9.45074 12 9.45007ZM12 22.4501C9.68333 21.8667 7.77067 20.5374 6.262 18.4621C4.75333 16.3867 3.99933 14.0827 4 11.5501V5.45007L12 2.45007L20 5.45007V11.5501C20 14.0834 19.2457 16.3877 17.737 18.4631C16.2283 20.5384 14.316 21.8674 12 22.4501ZM12 20.3501C13.7333 19.8001 15.1667 18.7001 16.3 17.0501C17.4333 15.4001 18 13.5667 18 11.5501V6.82507L12 4.57507L6 6.82507V11.5501C6 13.5667 6.56667 15.4001 7.7 17.0501C8.83333 18.7001 10.2667 19.8001 12 20.3501Z" fill="#545871"/>
</svg>