<svg width="25" height="24" viewBox="0 0 25 24" fill="none" xmlns="http://www.w3.org/2000/svg">
<path d="M11.5 17H13.5V11H11.5V17ZM12.5 9C12.7833 9 13.021 8.904 13.213 8.712C13.405 8.52 13.5007 8.28267 13.5 8C13.5 7.71667 13.404 7.479 13.212 7.287C13.02 7.095 12.7827 6.99933 12.5 7C12.2167 7 11.979 7.096 11.787 7.288C11.595 7.48 11.4993 7.71733 11.5 8C11.5 8.28333 11.596 8.521 11.788 8.713C11.98 8.905 12.2173 9.00067 12.5 9ZM12.5 22C10.1833 21.4167 8.27067 20.0873 6.762 18.012C5.25333 15.9367 4.49933 13.6327 4.5 11.1V5L12.5 2L20.5 5V11.1C20.5 13.6333 19.7457 15.9377 18.237 18.013C16.7283 20.0883 14.816 21.4173 12.5 22ZM12.5 19.9C14.2333 19.35 15.6667 18.25 16.8 16.6C17.9333 14.95 18.5 13.1167 18.5 11.1V6.375L12.5 4.125L6.5 6.375V11.1C6.5 13.1167 7.06667 14.95 8.2 16.6C9.33333 18.25 10.7667 19.35 12.5 19.9Z" fill="#545871"/>
</svg>
