<svg width="25" height="24" viewBox="0 0 25 24" fill="none" xmlns="http://www.w3.org/2000/svg">
<path d="M12 14C16.14 14 19.5 15.57 19.5 17.5V20H4.5V17.5C4.5 15.57 7.86 14 12 14ZM18.5 17.5C18.5 16.12 15.59 15 12 15C8.41 15 5.5 16.12 5.5 17.5V19H18.5V17.5ZM12 5C12.9283 5 13.8185 5.36875 14.4749 6.02513C15.1313 6.6815 15.5 7.57174 15.5 8.5C15.5 9.42826 15.1313 10.3185 14.4749 10.9749C13.8185 11.6313 12.9283 12 12 12C11.0717 12 10.1815 11.6313 9.52513 10.9749C8.86875 10.3185 8.5 9.42826 8.5 8.5C8.5 7.57174 8.86875 6.6815 9.52513 6.02513C10.1815 5.36875 11.0717 5 12 5ZM12 6C11.337 6 10.7011 6.26339 10.2322 6.73223C9.76339 7.20107 9.5 7.83696 9.5 8.5C9.5 9.16304 9.76339 9.79893 10.2322 10.2678C10.7011 10.7366 11.337 11 12 11C12.663 11 13.2989 10.7366 13.7678 10.2678C14.2366 9.79893 14.5 9.16304 14.5 8.5C14.5 7.83696 14.2366 7.20107 13.7678 6.73223C13.2989 6.26339 12.663 6 12 6Z" fill="#545871"/>
</svg>
