<svg xmlns="http://www.w3.org/2000/svg" width="24" height="25" viewBox="0 0 24 25" fill="none">
  <path d="M4 18.4501C4 17.3892 4.42143 16.3718 5.17157 15.6216C5.92172 14.8715 6.93913 14.4501 8 14.4501H16C17.0609 14.4501 18.0783 14.8715 18.8284 15.6216C19.5786 16.3718 20 17.3892 20 18.4501C20 18.9805 19.7893 19.4892 19.4142 19.8643C19.0391 20.2394 18.5304 20.4501 18 20.4501H6C5.46957 20.4501 4.96086 20.2394 4.58579 19.8643C4.21071 19.4892 4 18.9805 4 18.4501Z" stroke="#545871" stroke-width="2" stroke-linejoin="round"/>
  <path d="M12 10.4501C13.6569 10.4501 15 9.10693 15 7.45007C15 5.79322 13.6569 4.45007 12 4.45007C10.3431 4.45007 9 5.79322 9 7.45007C9 9.10693 10.3431 10.4501 12 10.4501Z" stroke="#545871" stroke-width="2"/>
</svg>